<?xml version="1.0" encoding="UTF-8"?>
<svg version="1.1" xmlns="http://www.w3.org/2000/svg" width="1036" height="259">
<path d="M0 0 C341.88 0 683.76 0 1036 0 C1036 85.47 1036 170.94 1036 259 C694.12 259 352.24 259 0 259 C0 173.53 0 88.06 0 0 Z " fill="#FCFDFD" transform="translate(0,0)"/>
<path d="M0 0 C1.25361328 0.00644531 2.50722656 0.01289062 3.79882812 0.01953125 C5.10916016 0.03628906 6.41949219 0.05304688 7.76953125 0.0703125 C9.10481112 0.08034611 10.44009814 0.0894713 11.77539062 0.09765625 C15.0444514 0.12125958 18.31315153 0.15418656 21.58203125 0.1953125 C20.97448264 3.86853744 19.94506004 6.90231852 18.359375 10.265625 C17.90723633 11.23516113 17.45509766 12.20469727 16.98925781 13.20361328 C16.50424805 14.23212402 16.01923828 15.26063477 15.51953125 16.3203125 C11.97374372 23.93075523 8.5278357 31.55620827 5.33203125 39.3203125 C2.58437758 45.97270888 -0.43712716 52.36896117 -3.71875 58.77734375 C-5.4843835 62.3289054 -7.0997111 65.92897549 -8.66796875 69.5703125 C-12.8444958 79.25392076 -17.26185497 88.82350784 -21.67236328 98.40234375 C-23.68287866 102.76951734 -25.68905105 107.13868344 -27.6953125 111.5078125 C-29.93124966 116.37665105 -32.16723052 121.24546949 -34.40380859 126.11401367 C-34.75287766 126.87393112 -35.10194672 127.63384857 -35.46159363 128.41679382 C-36.14755066 129.90904998 -36.83415356 131.40100943 -37.5214386 132.89265442 C-39.07897513 136.27371814 -40.62929822 139.65740515 -42.15551758 143.05273438 C-42.67782959 144.20708984 -43.2001416 145.36144531 -43.73828125 146.55078125 C-44.18574707 147.54875732 -44.63321289 148.5467334 -45.09423828 149.57495117 C-48.60148015 156.51763413 -53.26305702 160.58422428 -60.48046875 163.3828125 C-68.68169933 165.49118986 -77.8347305 165.05984738 -85.41796875 161.1953125 C-91.09570083 157.5791379 -93.92505823 153.329553 -96.41796875 147.1953125 C-96.66466309 146.59315918 -96.91135742 145.99100586 -97.16552734 145.37060547 C-98.9542334 140.99339979 -100.69748834 136.59974236 -102.41796875 132.1953125 C-104.73841099 134.50377311 -107.05388409 136.81087528 -109.3046875 139.1875 C-122.01633784 152.478206 -141.76172965 162.47483123 -160.4587059 163.2835865 C-162.88242705 163.3180455 -165.30408038 163.31900209 -167.72802734 163.30883789 C-168.64573914 163.30898392 -169.56345093 163.30912994 -170.50897217 163.3092804 C-173.5281413 163.30858634 -176.54724796 163.30081773 -179.56640625 163.29296875 C-181.66533372 163.29110277 -183.76426163 163.28967972 -185.8631897 163.28868103 C-191.37706717 163.28487004 -196.89091813 163.27505188 -202.40478516 163.26397705 C-208.03547812 163.25373242 -213.66617539 163.24917687 -219.296875 163.24414062 C-230.33725308 163.23342832 -241.37760456 163.21584302 -252.41796875 163.1953125 C-252.41796875 151.3153125 -252.41796875 139.4353125 -252.41796875 127.1953125 C-244.16796875 127.1953125 -235.91796875 127.1953125 -227.41796875 127.1953125 C-227.41796875 119.2753125 -227.41796875 111.3553125 -227.41796875 103.1953125 C-254.80796875 103.1953125 -282.19796875 103.1953125 -310.41796875 103.1953125 C-310.74796875 104.5153125 -311.07796875 105.8353125 -311.41796875 107.1953125 C-312.99920452 109.27487712 -313.98946696 110.06852733 -316.50390625 110.8125 C-320.36990856 111.24792006 -322.73540739 111.50028673 -326.35546875 109.8828125 C-328.41796875 108.1953125 -328.41796875 108.1953125 -330.41796875 106.1953125 C-330.02918687 103.18225293 -329.15340001 101.79845939 -327.41796875 99.1953125 C-326.88171875 100.1853125 -326.34546875 101.1753125 -325.79296875 102.1953125 C-323.72028259 105.50811028 -323.72028259 105.50811028 -320.29296875 105.6953125 C-317.29744327 105.45844929 -317.29744327 105.45844929 -315.41796875 103.1953125 C-315.17509386 100.75518301 -315.17509386 100.75518301 -315.29296875 98.0703125 C-315.31101562 97.16023438 -315.3290625 96.25015625 -315.34765625 95.3125 C-315.37085938 94.61382812 -315.3940625 93.91515625 -315.41796875 93.1953125 C-313.76796875 93.5253125 -312.11796875 93.8553125 -310.41796875 94.1953125 C-310.08796875 95.5153125 -309.75796875 96.8353125 -309.41796875 98.1953125 C-282.35796875 98.1953125 -255.29796875 98.1953125 -227.41796875 98.1953125 C-227.41796875 96.2153125 -227.41796875 94.2353125 -227.41796875 92.1953125 C-213.55796875 92.1953125 -199.69796875 92.1953125 -185.41796875 92.1953125 C-185.41796875 103.7453125 -185.41796875 115.2953125 -185.41796875 127.1953125 C-160.77359185 126.1948711 -160.77359185 126.1948711 -140.60546875 113.4453125 C-138.27543156 110.55474749 -136.42780088 107.54988999 -134.60546875 104.3203125 C-131.766005 99.37023131 -128.22113691 95.70625753 -124.078125 91.8125 C-121.98190496 89.75013961 -120.07711048 87.68483511 -118.1640625 85.4609375 C-114.12119585 80.78686906 -109.79725333 76.42755371 -105.41796875 72.0703125 C-104.6496875 71.29816406 -103.88140625 70.52601563 -103.08984375 69.73046875 C-90.53333289 57.1953125 -90.53333289 57.1953125 -87.41796875 57.1953125 C-83.42496041 65.64921527 -79.90801112 74.26343548 -76.48657227 82.95947266 C-75.5951775 85.22142701 -74.69522239 87.47985903 -73.79492188 89.73828125 C-73.22474141 91.18208681 -72.65506102 92.62608998 -72.0859375 94.0703125 C-71.81726364 94.74215576 -71.54858978 95.41399902 -71.27177429 96.10620117 C-70.15442174 98.96652045 -69.41796875 101.09364419 -69.41796875 104.1953125 C-68.75796875 104.1953125 -68.09796875 104.1953125 -67.41796875 104.1953125 C-67.25057693 103.65923874 -67.08318512 103.12316498 -66.91072083 102.57084656 C-65.01394792 96.6723246 -62.71370566 91.05262565 -60.1796875 85.40234375 C-59.77643753 84.49385178 -59.37318756 83.5853598 -58.9577179 82.64933777 C-57.67752342 79.76708097 -56.39174539 76.8873594 -55.10546875 74.0078125 C-53.83446901 71.15332764 -52.56465784 68.29832021 -51.29592896 65.44282532 C-50.4736306 63.59418548 -49.64917398 61.74650405 -48.82247925 59.89982605 C-47.03886883 55.90555542 -45.28115062 51.9104161 -43.65087891 47.85083008 C-43.25712822 46.88175972 -43.25712822 46.88175972 -42.85542297 45.89311218 C-42.18426166 44.22538098 -41.53036571 42.55072875 -40.87817383 40.87548828 C-38.69945735 36.87649991 -35.62616269 34.98813869 -31.80078125 32.67578125 C-25.00889822 28.45590638 -21.40248453 21.11013121 -17.375 14.43359375 C-15.65946557 11.59491503 -13.91502916 8.78726136 -12.10546875 6.0078125 C-11.43064453 4.96560547 -11.43064453 4.96560547 -10.7421875 3.90234375 C-7.6170146 -0.12627147 -4.77212936 -0.04318669 0 0 Z " fill="#10B0B0" transform="translate(345.41796875,73.8046875)"/>
<path d="M0 0 C3.97520226 5.96280339 6.13381383 12.92141797 8.66796875 19.58984375 C9.9390355 22.84392372 11.299621 26.04436797 12.6875 29.25 C13.08324219 30.23484375 13.47898438 31.2196875 13.88671875 32.234375 C14.94224422 34.95518665 14.94224422 34.95518665 16.14453125 37.328125 C17.16110572 39.90901725 17.48916415 41.25245185 17 44 C5.48681656 61.37360147 -14.86177042 70.40081978 -34.64932251 74.55638123 C-38.89159572 75.11804437 -43.03594938 75.13144776 -47.31005859 75.11352539 C-48.22777039 75.11367142 -49.14548218 75.11381744 -50.09100342 75.1139679 C-53.11017255 75.11327384 -56.12927921 75.10550523 -59.1484375 75.09765625 C-61.24736497 75.09579027 -63.34629288 75.09436722 -65.44522095 75.09336853 C-70.95909842 75.08955754 -76.47294938 75.07973938 -81.98681641 75.06866455 C-87.61750937 75.05841992 -93.24820664 75.05386437 -98.87890625 75.04882812 C-109.91928433 75.03811582 -120.95963581 75.02053052 -132 75 C-132 63.12 -132 51.24 -132 39 C-123.75 39 -115.5 39 -107 39 C-107 31.08 -107 23.16 -107 15 C-134.39 15 -161.78 15 -190 15 C-190.33 16.32 -190.66 17.64 -191 19 C-192.58123577 21.07956462 -193.57149821 21.87321483 -196.0859375 22.6171875 C-199.95193981 23.05260756 -202.31743864 23.30497423 -205.9375 21.6875 C-208 20 -208 20 -210 18 C-209.61121812 14.98694043 -208.73543126 13.60314689 -207 11 C-206.46375 11.99 -205.9275 12.98 -205.375 14 C-203.30231384 17.31279778 -203.30231384 17.31279778 -199.875 17.5 C-196.87947452 17.26313679 -196.87947452 17.26313679 -195 15 C-194.75712511 12.55987051 -194.75712511 12.55987051 -194.875 9.875 C-194.89304688 8.96492187 -194.91109375 8.05484375 -194.9296875 7.1171875 C-194.95289063 6.41851562 -194.97609375 5.71984375 -195 5 C-192.525 5.495 -192.525 5.495 -190 6 C-189.67 7.32 -189.34 8.64 -189 10 C-161.94 10 -134.88 10 -107 10 C-107 8.02 -107 6.04 -107 4 C-93.14 4 -79.28 4 -65 4 C-65 15.55 -65 27.1 -65 39 C-40.3556231 37.9995586 -40.3556231 37.9995586 -20.1875 25.25 C-17.87173195 22.37844761 -16.04863243 19.40261916 -14.25 16.1875 C-10.59482891 9.76598357 -5.34736036 5.00482483 0 0 Z " fill="#0152A4" transform="translate(225,162)"/>
<path d="M0 0 C20.78081977 -0.08021762 20.78081977 -0.08021762 29.74023438 -0.09765625 C35.81831418 -0.10954335 41.89633289 -0.12349983 47.97436523 -0.15087891 C52.88272833 -0.17284699 57.79102576 -0.18461832 62.69943428 -0.18975449 C64.55821323 -0.19340776 66.41698921 -0.20053942 68.27573967 -0.21146011 C98.85368433 -0.38372582 98.85368433 -0.38372582 111.875 4.75 C112.57786133 5.01530518 113.28072266 5.28061035 114.00488281 5.55395508 C127.65087063 10.84420208 141.66769083 19.62056924 150 32 C152.03915342 42.19576709 145.45746994 54.66320266 140 63 C135.6057726 68.96415784 131.08185927 74.6981971 125 79 C124.34 79 123.68 79 123 79 C122.90203125 78.23816406 122.8040625 77.47632813 122.703125 76.69140625 C120.88448107 64.13335635 116.21949299 53.56352324 106.18359375 45.3828125 C96.74262189 39.40409329 86.42080579 37.87739115 75.49438477 37.79467773 C74.67406265 37.78477814 73.85374054 37.77487854 73.00856018 37.76467896 C70.31953739 37.73330115 67.63049699 37.70840118 64.94140625 37.68359375 C63.0681057 37.66300369 61.19480958 37.6420067 59.32151794 37.62062073 C54.40776169 37.56561186 49.49396498 37.51610975 44.58013916 37.46777344 C38.67539325 37.40853608 32.77072074 37.34242545 26.86603546 37.27747345 C17.9107354 37.17973074 8.95538673 37.09069235 0 37 C0 24.79 0 12.58 0 0 Z " fill="#079BD2" transform="translate(93,73)"/>
<path d="M0 0 C-2.07636415 17.22821061 -6.32719262 33.60768558 -18 47 C-18.46535156 47.59425781 -18.93070312 48.18851563 -19.41015625 48.80078125 C-20.55037465 50.24683082 -21.76809507 51.63121674 -23 53 C-23.66 53 -24.32 53 -25 53 C-25.33 53.99 -25.66 54.98 -26 56 C-28.11205447 57.82470012 -30.21001529 59.51748205 -32.4375 61.1875 C-33.03626953 61.65091797 -33.63503906 62.11433594 -34.25195312 62.59179688 C-38.73431747 66 -38.73431747 66 -41 66 C-40.9175 67.134375 -40.835 68.26875 -40.75 69.4375 C-40.75 76.71773725 -44.26593438 82.67116213 -49 88 C-51.27423729 90.02384005 -53.65162299 91.89239798 -56.0625 93.75 C-56.99932617 94.49056641 -56.99932617 94.49056641 -57.95507812 95.24609375 C-60.6097156 97.3142745 -62.78426158 98.92808719 -66 100 C-65.72285156 98.9378125 -65.44570313 97.875625 -65.16015625 96.78125 C-64.79401364 95.35423263 -64.42814278 93.92714552 -64.0625 92.5 C-63.88009766 91.80390625 -63.69769531 91.1078125 -63.50976562 90.390625 C-62.29034434 85.60162506 -61.52577635 80.91462529 -61 76 C-62.5159375 76.185625 -62.5159375 76.185625 -64.0625 76.375 C-69.12082191 75.89325506 -71.74120807 73.82338506 -75 70 C-75 69.34 -75 68.68 -75 68 C-75.66 68 -76.32 68 -77 68 C-75.77065985 71.68802044 -74.06140622 72.72356973 -71 75 C-71.49366671 79.171126 -72.45390518 80.90787263 -75.6875 83.5625 C-76.76451172 84.44808594 -76.76451172 84.44808594 -77.86328125 85.3515625 C-85.18483412 91 -85.18483412 91 -88 91 C-88 90.34 -88 89.68 -88 89 C-92.29235546 90.52309387 -96.08929071 92.69562115 -100.01171875 94.9765625 C-102 96 -102 96 -104 96 C-102.42503263 88.69787858 -99.76671785 81.92735461 -97 75 C-98.32 75 -99.64 75 -101 75 C-97.79802899 68.23527251 -93.39364819 62.90693241 -87.41796875 58.421875 C-85.69788314 56.69705086 -85.39012456 55.37114669 -85 53 C-93.57723672 50.52656429 -101.77866878 52.00394003 -110 55 C-107.94699322 50.47217791 -104.86205853 47.53128254 -101.375 44.0625 C-100.78332031 43.45470703 -100.19164062 42.84691406 -99.58203125 42.22070312 C-89.56370524 32.19155819 -89.56370524 32.19155819 -82.1484375 31.79296875 C-80.90320313 31.92316406 -79.65796875 32.05335937 -78.375 32.1875 C-73.3890413 32.55987161 -73.3890413 32.55987161 -69.0859375 30.5546875 C-67.71155115 28.55648993 -67.71155115 28.55648993 -66.484375 26.34765625 C-58.25149755 13.3267106 -38.17216051 5.07292244 -23.9375 1.25 C-15.98818729 -0.50911824 -8.08893495 -0.26155838 0 0 Z " fill="#C7C8C9" transform="translate(357,15)"/>
<path d="M0 0 C4.23175554 -0.04998439 8.46334796 -0.08599164 12.6953125 -0.10986328 C14.13056436 -0.11983031 15.56579642 -0.13340887 17.00097656 -0.15087891 C31.6033376 -0.32398918 44.99248802 0.6321546 56.20703125 10.99609375 C65.19291582 21.03914121 64.71556898 32.52006767 64.22216797 45.26660156 C63.76627802 50.87555092 61.92366217 55.26292712 59 60 C58.48050781 60.886875 57.96101563 61.77375 57.42578125 62.6875 C51.72790832 71.61283942 43.05156099 78.972831 32.62524414 81.59790039 C23.1595071 83.34022246 13.83278713 83.22565155 4.25 83.125 C2.57031787 83.11494397 0.89062988 83.10582278 -0.7890625 83.09765625 C-4.85952282 83.07586468 -8.92969468 83.04148163 -13 83 C-11.8990001 75.57369485 -10.79479679 68.1478714 -9.68688583 60.72259426 C-9.17210967 57.27190389 -8.6582968 53.82107677 -8.14697266 50.36987305 C-5.65255844 33.53911198 -3.01985703 16.7456279 0 0 Z " fill="#045EAF" transform="translate(378,102)"/>
<path d="M0 0 C1.88041992 0.00966797 1.88041992 0.00966797 3.79882812 0.01953125 C5.76432617 0.04466797 5.76432617 0.04466797 7.76953125 0.0703125 C9.10481112 0.08034611 10.44009814 0.0894713 11.77539062 0.09765625 C15.0444514 0.12125958 18.31315153 0.15418656 21.58203125 0.1953125 C20.97448264 3.86853744 19.94506004 6.90231852 18.359375 10.265625 C17.90723633 11.23516113 17.45509766 12.20469727 16.98925781 13.20361328 C16.50424805 14.23212402 16.01923828 15.26063477 15.51953125 16.3203125 C11.97374372 23.93075523 8.5278357 31.55620827 5.33203125 39.3203125 C2.58437758 45.97270888 -0.43712716 52.36896117 -3.71875 58.77734375 C-5.48438244 62.32890325 -7.09968155 65.92898607 -8.66796875 69.5703125 C-11.77554408 76.77365755 -14.98135493 83.9296705 -18.23046875 91.0703125 C-18.7109668 92.13556152 -19.19146484 93.20081055 -19.68652344 94.29833984 C-20.36763184 95.79034912 -20.36763184 95.79034912 -21.0625 97.3125 C-21.46831299 98.20565918 -21.87412598 99.09881836 -22.29223633 100.01904297 C-23.41796875 102.1953125 -23.41796875 102.1953125 -25.41796875 104.1953125 C-29.8991197 102.78695077 -32.20957088 100.56413026 -35.41796875 97.1953125 C-38.01991558 95.02702347 -40.59878306 93.07476962 -43.41796875 91.1953125 C-43.41796875 90.5353125 -43.41796875 89.8753125 -43.41796875 89.1953125 C-44.73796875 89.1953125 -46.05796875 89.1953125 -47.41796875 89.1953125 C-47.41796875 88.5353125 -47.41796875 87.8753125 -47.41796875 87.1953125 C-50.33279653 86.38563812 -51.87910092 85.97685257 -54.73046875 87.1328125 C-55.28734375 87.4834375 -55.84421875 87.8340625 -56.41796875 88.1953125 C-57.40796875 87.5353125 -58.39796875 86.8753125 -59.41796875 86.1953125 C-57.08835273 78.6529741 -54.06819667 71.47149194 -50.91210938 64.24829102 C-50.04709502 62.26726235 -49.18914101 60.28328757 -48.33203125 58.29882812 C-46.72223427 54.58461484 -45.07878434 50.88702094 -43.41796875 47.1953125 C-42.96510498 46.18670166 -42.51224121 45.17809082 -42.0456543 44.13891602 C-41.62840088 43.25260498 -41.21114746 42.36629395 -40.78125 41.453125 C-40.42844971 40.69789551 -40.07564941 39.94266602 -39.7121582 39.16455078 C-37.65689631 36.0372649 -34.77499878 34.48243275 -31.61328125 32.59375 C-24.95568451 28.3527898 -21.35090137 21.02461953 -17.375 14.43359375 C-15.65946557 11.59491503 -13.91502916 8.78726136 -12.10546875 6.0078125 C-11.65558594 5.31300781 -11.20570313 4.61820312 -10.7421875 3.90234375 C-7.6170146 -0.12627147 -4.77212936 -0.04318669 0 0 Z " fill="#4DD09A" transform="translate(345.41796875,73.8046875)"/>
<path d="M0 0 C3.71811327 3.22848518 6.19594257 6.7537183 6.93896484 11.72607422 C7.10070064 14.11843749 7.14345859 16.47727683 7.125 18.875 C7.12000488 19.7196582 7.11500977 20.56431641 7.10986328 21.43457031 C6.92175372 28.16759523 5.65606311 33.12125517 1.625 38.625 C1.00818359 39.5840625 1.00818359 39.5840625 0.37890625 40.5625 C-4.22773423 46.90517413 -12.68625861 51.32427307 -20.375 52.625 C-30.26970148 53.23032291 -39.56724255 53.16015671 -48.25 47.875 C-55.00869543 40.71873425 -56.90367297 32.30720496 -56.67578125 22.67578125 C-55.64863611 12.25759484 -49.51933802 4.72232078 -41.6328125 -1.8203125 C-28.88353133 -10.73820347 -11.73246022 -9.62061738 0 0 Z " fill="#14B6AD" transform="translate(789.375,133.375)"/>
<path d="M0 0 C6.27 0 12.54 0 19 0 C19.29245605 1.41216797 19.58491211 2.82433594 19.88623047 4.27929688 C20.97670897 9.54265949 22.06933648 14.80557411 23.16259766 20.06835938 C23.63453406 22.34167608 24.10589571 24.61511219 24.57666016 26.88867188 C25.25530588 30.1656842 25.93605037 33.44225473 26.6171875 36.71875 C26.92981033 38.23172668 26.92981033 38.23172668 27.24874878 39.77526855 C28.38259656 45.21842284 29.60945834 50.61653749 31 56 C31.40202637 55.22100342 31.80405273 54.44200684 32.21826172 53.6394043 C34.10306616 49.9883687 35.98869241 46.33775919 37.875 42.6875 C38.38554428 41.69950912 38.38554428 41.69950912 38.90640259 40.69155884 C43.51764326 31.77072455 48.14926174 22.86153342 52.85302734 13.98901367 C55.30542526 9.3556748 57.6540136 4.69197279 60 0 C66.93 0 73.86 0 81 0 C76.61193693 9.07531225 71.86721065 17.83059885 66.82495117 26.55786133 C62.95782056 33.27163802 59.23061734 40.05067296 55.5625 46.875 C49.21334709 58.68185812 42.63802492 70.35357985 36 82 C29.73 82 23.46 82 17 82 C16.74605469 80.62328125 16.49210938 79.2465625 16.23046875 77.828125 C15.88300313 75.96871437 15.53533597 74.10934139 15.1875 72.25 C15.02185547 71.34894531 14.85621094 70.44789063 14.68554688 69.51953125 C13.80765713 64.84849526 12.83555193 60.23250508 11.65234375 55.62890625 C9.52827047 47.31684739 7.774205 38.92369439 5.98339844 30.53491211 C5.37244659 27.67554957 4.75672361 24.81724185 4.140625 21.95898438 C3.74710988 20.12245708 3.35387093 18.28587059 2.9609375 16.44921875 C2.77864594 15.60429367 2.59635437 14.75936859 2.40853882 13.88883972 C2.23811066 13.08722916 2.0676825 12.28561859 1.89208984 11.4597168 C1.74347504 10.76533005 1.59486023 10.0709433 1.44174194 9.35551453 C0.86014753 6.25426024 0.44622932 3.12360523 0 0 Z " fill="#11B4B1" transform="translate(570,103)"/>
<path d="M0 0 C4.93191115 4.55253337 6.72831237 10.95709858 7.3125 17.5 C6.93566257 21.72057919 5.91921437 25.86353532 5 30 C-8.2 30 -21.4 30 -35 30 C-32.64792775 36.52024003 -32.64792775 36.52024003 -28 40 C-21.82533966 41.85634778 -15.44139123 42.08985051 -9.6875 39 C-9.05199219 38.63390625 -8.41648437 38.2678125 -7.76171875 37.890625 C-5.44799929 36.72093978 -3.54778041 36.68152745 -1 37 C-0.94113117 40.00231053 -0.95458497 42.99756216 -1 46 C-1 46.94875 -1 47.8975 -1 48.875 C-2 51 -2 51 -5.625 52.6875 C-7.07864985 53.14031836 -8.53703566 53.57824451 -10 54 C-11.6396875 54.5878125 -11.6396875 54.5878125 -13.3125 55.1875 C-23.67293285 57.47030724 -34.3711291 56.09765885 -43.49609375 50.45703125 C-48.15727815 46.7195311 -51.02448215 42.93918218 -52 37 C-52.88976758 26.36092194 -52.21289353 17.03227514 -45.8125 8.25 C-34.47253872 -5.12170434 -15.23621701 -10.43695321 0 0 Z " fill="#14B3AF" transform="translate(690,131)"/>
<path d="M0 0 C6.6 0 13.2 0 20 0 C20.556875 2.43375 21.11375 4.8675 21.6875 7.375 C23.84421874 16.66329318 26.38370164 25.83223322 29 35 C29.39791748 34.25951416 29.79583496 33.51902832 30.20581055 32.75610352 C31.7056365 29.96579551 33.2060296 27.17579339 34.70678711 24.38598633 C35.35186552 23.18656123 35.99672839 21.98702019 36.64135742 20.78735352 C40.37963506 13.83072962 44.14463301 6.89248209 48 0 C54.6 0 61.2 0 68 0 C64.58748487 7.08753143 60.96506409 13.88369308 56.87451172 20.59716797 C53.23185585 26.58121323 49.70636069 32.62998134 46.1875 38.6875 C44.38193879 41.78386305 42.57468679 44.8792313 40.76660156 47.97412109 C39.61306209 49.94993207 38.46128918 51.92677578 37.31152344 53.90478516 C35.73714614 56.60836124 34.15140819 59.30494473 32.5625 62 C32.10319092 62.79365967 31.64388184 63.58731934 31.1706543 64.4050293 C25.681584 73.65639368 20.03548258 80.58935523 9.5 83.75 C3.064685 84.3935315 -1.90857281 84.03047573 -8 82 C-7.68872484 80.41642541 -7.37592711 78.83315007 -7.0625 77.25 C-6.88847656 76.36828125 -6.71445312 75.4865625 -6.53515625 74.578125 C-6.07631512 72.36764947 -5.56663926 70.18487932 -5 68 C-4.34773437 68.03480469 -3.69546875 68.06960937 -3.0234375 68.10546875 C2.43502118 68.27453605 6.35201023 68.20932627 11 65 C14.29097179 61.61761233 15.89828023 58.57655974 17 54 C16.48605821 50.7237309 16.48605821 50.7237309 15.25390625 47.37109375 C14.94475029 46.43586884 14.94475029 46.43586884 14.62934875 45.48175049 C13.95699787 43.46098698 13.26004752 41.44968847 12.5625 39.4375 C12.09548027 38.04784795 11.63015767 36.65762442 11.16650391 35.2668457 C10.01144729 31.81396851 8.83735448 28.36793922 7.65716553 24.92358398 C6.34928637 21.09530132 5.06926795 17.2576897 3.78881836 13.42016602 C3.19187702 11.63508337 2.59003542 9.85162988 1.98266602 8.07006836 C0 2.21610981 0 2.21610981 0 0 Z " fill="#16B8AC" transform="translate(944,128)"/>
<path d="M0 0 C4.6119754 4.33391451 6.65372447 8.27386355 7.109375 14.70703125 C7.09519531 15.79886719 7.08101563 16.89070313 7.06640625 18.015625 C7.05996094 19.11003906 7.05351562 20.20445312 7.046875 21.33203125 C6.87890625 24.453125 6.87890625 24.453125 5.87890625 29.453125 C-7.65109375 29.453125 -21.18109375 29.453125 -35.12109375 29.453125 C-32.93606911 37.99483492 -32.93606911 37.99483492 -27.12109375 42.453125 C-20.64370735 44.43813051 -15.72519171 42.98814955 -9.6015625 40.4609375 C-7.12109375 39.453125 -7.12109375 39.453125 -3.12109375 38.453125 C-2.13109375 42.413125 -1.14109375 46.373125 -0.12109375 50.453125 C-10.98015338 55.40357865 -22.51682441 57.86813439 -34.30859375 54.203125 C-40.32164433 51.74531915 -43.96060605 48.12020639 -47.12109375 42.453125 C-50.29154134 33.25882699 -50.46657572 23.68417657 -46.37890625 14.765625 C-41.89567446 6.52316159 -35.769016 0.31195883 -27.12109375 -3.546875 C-17.94686752 -5.31114927 -7.90273536 -5.76332081 0 0 Z " fill="#045DAE" transform="translate(496.12109375,130.546875)"/>
<path d="M0 0 C21.85691145 -0.4774568 21.85691145 -0.4774568 30 6 C35.16599322 11.02249341 35.74729235 16.9169667 36.3125 23.8125 C35.97056673 33.90958818 32.8115757 43.5567636 25.3359375 50.55859375 C17.74976907 56.39544023 10.29122311 57.43740186 1 57.1875 C0.03449219 57.17396484 -0.93101562 57.16042969 -1.92578125 57.14648438 C-4.28445425 57.11145458 -6.64191771 57.06234084 -9 57 C-8.89453857 56.32759277 -8.78907715 55.65518555 -8.68041992 54.96240234 C-6.66695563 42.09065178 -4.68027663 29.22190103 -3.03979492 16.29638672 C-2.31891925 10.77448974 -1.27754098 5.42135978 0 0 Z " fill="#FAFBFC" transform="translate(391,115)"/>
<path d="M0 0 C-0.14058476 2.45873768 -0.28722999 4.91685175 -0.4375 7.375 C-0.47681641 8.07367188 -0.51613281 8.77234375 -0.55664062 9.4921875 C-0.88671875 14.7734375 -0.88671875 14.7734375 -2 17 C3.61 17 9.22 17 15 17 C14.125 26.625 14.125 26.625 13 30 C7.39 30 1.78 30 -4 30 C-4.12375 31.423125 -4.2475 32.84625 -4.375 34.3125 C-4.75068087 38.15642312 -5.3223349 41.89743473 -6.0625 45.6875 C-7.58372564 52.96659776 -7.58372564 52.96659776 -6 60 C-0.22192976 60.2358396 4.51324804 59.86783046 10 58 C9.67 62.62 9.34 67.24 9 72 C-9.17452331 78.05817444 -9.17452331 78.05817444 -19.05078125 73.21484375 C-22.39675247 71.12947892 -24.26594871 68.46810258 -26 65 C-27.2440429 53.17139534 -24.31521613 41.52440173 -22 30 C-24.97 30 -27.94 30 -31 30 C-30.34 25.71 -29.68 21.42 -29 17 C-25.7 17 -22.4 17 -19 17 C-18.855625 15.4325 -18.71125 13.865 -18.5625 12.25 C-18.26941369 9.06792001 -17.85659135 6.08084955 -17 3 C-14.73000175 2.49622232 -12.45896997 1.99709981 -10.1875 1.5 C-8.29064453 1.08234375 -8.29064453 1.08234375 -6.35546875 0.65625 C-3 0 -3 0 0 0 Z " fill="#19BBAB" transform="translate(923,111)"/>
<path d="M0 0 C-0.99043705 4.83628305 -1.95698846 9.47618873 -4 14 C-4.54527344 13.71125 -5.09054687 13.4225 -5.65234375 13.125 C-11.95846151 10.02044972 -17.3360065 8.52803042 -24.203125 10.6953125 C-28.98453356 12.80267405 -31.61630232 15.23260464 -34 20 C-34.84239972 22.88695186 -34.84239972 22.88695186 -35 26 C-35.09474609 26.98033203 -35.09474609 26.98033203 -35.19140625 27.98046875 C-35.40739211 31.69403212 -35.15388613 33.75059834 -33.1875 36.9375 C-29.60192488 40.31818512 -26.10856721 40.32371857 -21.4140625 40.30078125 C-18.09117797 39.88676489 -15.66501765 38.59019934 -12.82421875 36.875 C-11 36 -11 36 -7 36 C-7 40.95 -7 45.9 -7 51 C-17.28745905 55.11498362 -28.66852184 57.40761039 -39.5625 53.875 C-46.89193194 49.87712803 -51.41509383 45.43773726 -54.25 37.5 C-56.31379524 28.03500805 -54.50130577 19.10990685 -49.86328125 10.73046875 C-44.24829106 2.50221269 -36.6153108 -2.31098448 -27.0625 -4.75 C-17.61363292 -5.52133609 -8.03830266 -5.70460188 0 0 Z " fill="#14B5AC" transform="translate(857,131)"/>
<path d="M0 0 C1.88041992 0.00966797 1.88041992 0.00966797 3.79882812 0.01953125 C5.76432617 0.04466797 5.76432617 0.04466797 7.76953125 0.0703125 C9.10481112 0.08034611 10.44009814 0.0894713 11.77539062 0.09765625 C15.0444514 0.12125958 18.31315153 0.15418656 21.58203125 0.1953125 C20.97448264 3.86853744 19.94506004 6.90231852 18.359375 10.265625 C17.9070752 11.2354834 17.45477539 12.2053418 16.98876953 13.20458984 C16.26149658 14.74687256 16.26149658 14.74687256 15.51953125 16.3203125 C11.93543407 24.01451657 8.44919893 31.7255881 5.20703125 39.5703125 C2.58105687 45.91592104 -0.17650017 52.1331429 -3.41796875 58.1953125 C-6.41796875 57.1953125 -6.41796875 57.1953125 -8.41796875 55.1953125 C-10.48670909 54.552789 -10.48670909 54.552789 -12.41796875 54.1953125 C-12.47984375 53.6384375 -12.54171875 53.0815625 -12.60546875 52.5078125 C-13.93913954 48.71198024 -16.84137702 45.98360837 -20.41796875 44.1953125 C-20.74796875 45.1853125 -21.07796875 46.1753125 -21.41796875 47.1953125 C-21.41796875 46.2053125 -21.41796875 45.2153125 -21.41796875 44.1953125 C-22.07796875 43.8653125 -22.73796875 43.5353125 -23.41796875 43.1953125 C-23.74796875 42.8653125 -24.07796875 42.5353125 -24.41796875 42.1953125 C-25.07796875 41.8653125 -25.73796875 41.5353125 -26.41796875 41.1953125 C-26.74796875 42.1853125 -27.07796875 43.1753125 -27.41796875 44.1953125 C-28.40796875 44.1953125 -29.39796875 44.1953125 -30.41796875 44.1953125 C-30.74796875 43.5353125 -31.07796875 42.8753125 -31.41796875 42.1953125 C-33.39796875 42.1953125 -35.37796875 42.1953125 -37.41796875 42.1953125 C-37.41796875 40.2153125 -37.41796875 38.2353125 -37.41796875 36.1953125 C-36.40734375 35.7003125 -35.39671875 35.2053125 -34.35546875 34.6953125 C-26.34101017 30.0443516 -21.99026121 22.14913327 -17.33984375 14.3984375 C-15.64118795 11.5673445 -13.90780144 8.7737686 -12.10546875 6.0078125 C-11.65558594 5.31300781 -11.20570313 4.61820312 -10.7421875 3.90234375 C-7.6170146 -0.12627147 -4.77212936 -0.04318669 0 0 Z " fill="#61D394" transform="translate(345.41796875,73.8046875)"/>
<path d="M0 0 C5.94 0 11.88 0 18 0 C17.53298326 7.37886454 16.63001642 14.54880843 15.29760742 21.81323242 C14.11436251 28.27924755 13.03873965 34.7592381 12 41.25 C11.83024658 42.31057617 11.66049316 43.37115234 11.4855957 44.46386719 C10.24813742 52.27202122 9.09719844 60.09029236 8.0390625 67.92480469 C7.24813281 73.67081473 6.17924671 79.32046561 5 85 C-0.94 85 -6.88 85 -13 85 C-11.71481932 74.42290787 -10.28253071 63.88959635 -8.65234375 53.359375 C-8.43325303 51.93453116 -8.2143078 50.50966494 -7.99549866 49.08477783 C-7.54230211 46.13686107 -7.08755218 43.18918973 -6.6315918 40.24169922 C-6.0481906 36.4696963 -5.46855937 32.69712514 -4.89002132 28.92437363 C-4.44102417 25.99880658 -3.9902067 23.07352233 -3.53882027 20.14832306 C-3.3241943 18.75616867 -3.11010023 17.36393217 -2.89655876 15.97161102 C-2.59945766 14.03645574 -2.2996672 12.10171393 -1.99975586 10.16699219 C-1.745662 8.52062775 -1.745662 8.52062775 -1.48643494 6.84100342 C-1.09261792 4.5409312 -0.56596737 2.26386948 0 0 Z " fill="#13B6AD" transform="translate(714,100)"/>
<path d="M0 0 C4.95 0 9.9 0 15 0 C17.74989552 13.65165525 20.48905447 27.30207765 23 41 C23.43828125 40.02804688 23.8765625 39.05609375 24.328125 38.0546875 C29.66236984 26.39794972 35.68284072 15.17736362 41.91186523 3.97680664 C42.63386269 2.66515904 43.33041808 1.33916385 44 0 C49.28 0 54.56 0 60 0 C59.154375 1.546875 58.30875 3.09375 57.4375 4.6875 C55.76625818 7.74691948 54.10170489 10.80875341 52.46484375 13.88671875 C48.26480522 21.78114007 43.91185256 29.58374219 39.3972168 37.30297852 C37.15365941 41.14652722 34.96006098 44.92416353 33.19921875 49.015625 C30.63244822 54.6134398 30.63244822 54.6134398 28 57 C22.80684026 57.98788798 18.20840262 57.72394786 13 57 C7.93783084 38.09985203 3.53726065 19.24796622 0 0 Z " fill="#035FB0" transform="translate(509,128)"/>
<path d="M0 0 C-2.07636415 17.22821061 -6.32719262 33.60768558 -18 47 C-18.46535156 47.59425781 -18.93070312 48.18851563 -19.41015625 48.80078125 C-20.55037465 50.24683082 -21.76809507 51.63121674 -23 53 C-23.66 53 -24.32 53 -25 53 C-25.33 53.99 -25.66 54.98 -26 56 C-28.11205447 57.82470012 -30.21001529 59.51748205 -32.4375 61.1875 C-33.03626953 61.65091797 -33.63503906 62.11433594 -34.25195312 62.59179688 C-38.73431747 66 -38.73431747 66 -41 66 C-40.9175 67.134375 -40.835 68.26875 -40.75 69.4375 C-40.75 76.71773725 -44.26593438 82.67116213 -49 88 C-51.27423729 90.02384005 -53.65162299 91.89239798 -56.0625 93.75 C-56.99932617 94.49056641 -56.99932617 94.49056641 -57.95507812 95.24609375 C-60.6097156 97.3142745 -62.78426158 98.92808719 -66 100 C-65.71125 98.94941406 -65.4225 97.89882812 -65.125 96.81640625 C-64.74941982 95.39859106 -64.37445277 93.98061336 -64 92.5625 C-63.80921875 91.87478516 -63.6184375 91.18707031 -63.421875 90.47851562 C-62.04614673 85.19670174 -61.82797495 80.45641954 -62 75 C-61.49774902 74.75991211 -60.99549805 74.51982422 -60.47802734 74.27246094 C-48.51982657 68.47735384 -38.64271788 62.13175864 -29 53 C-28.319375 52.42121094 -27.63875 51.84242187 -26.9375 51.24609375 C-13.45282845 39.29093356 -7.09105557 19.93840554 -3 3 C-3.66 3.33 -4.32 3.66 -5 4 C-7.2281922 4.10624493 -9.45773042 4.18476118 -11.6875 4.25 C-25.46577395 4.9664036 -39.98239404 10.37320324 -50.6796875 19.21484375 C-53 21 -53 21 -56 21 C-56 21.66 -56 22.32 -56 23 C-57.98600337 24.3540932 -59.98817543 25.68457624 -62 27 C-62.721875 27.7425 -63.44375 28.485 -64.1875 29.25 C-66 31 -66 31 -69 31 C-69.33 31.99 -69.66 32.98 -70 34 C-70.57234375 34.56203125 -71.1446875 35.1240625 -71.734375 35.703125 C-74.74070372 38.75092032 -76.92278714 42.17123372 -79.25 45.75 C-79.70890625 46.44738281 -80.1678125 47.14476562 -80.640625 47.86328125 C-81.76465406 49.57274211 -82.88291224 51.28599512 -84 53 C-84.71800781 52.84015625 -85.43601562 52.6803125 -86.17578125 52.515625 C-94.59575242 50.97836885 -102.02369941 52.09323536 -110 55 C-107.94699322 50.47217791 -104.86205853 47.53128254 -101.375 44.0625 C-100.78332031 43.45470703 -100.19164062 42.84691406 -99.58203125 42.22070312 C-89.56370524 32.19155819 -89.56370524 32.19155819 -82.1484375 31.79296875 C-80.90320313 31.92316406 -79.65796875 32.05335937 -78.375 32.1875 C-73.3890413 32.55987161 -73.3890413 32.55987161 -69.0859375 30.5546875 C-67.71155115 28.55648993 -67.71155115 28.55648993 -66.484375 26.34765625 C-58.25149755 13.3267106 -38.17216051 5.07292244 -23.9375 1.25 C-15.98818729 -0.50911824 -8.08893495 -0.26155838 0 0 Z " fill="#B9BABC" transform="translate(357,15)"/>
<path d="M0 0 C13.86 0 27.72 0 42 0 C42 6.93 42 13.86 42 21 C28.14 21 14.28 21 0 21 C0 19.02 0 17.04 0 15 C-20.13 15 -40.26 15 -61 15 C-61.33 16.32 -61.66 17.64 -62 19 C-64.53096276 21.28403956 -66.5292024 22.85062212 -70 23.203125 C-73.95878125 22.9332081 -75.79151458 22.16070751 -79 19.6875 C-81 17 -81 17 -81 13 C-80.34 13 -79.68 13 -79 13 C-78.67 12.34 -78.34 11.68 -78 11 C-77.443125 12.2065625 -77.443125 12.2065625 -76.875 13.4375 C-75.19557372 16.24683247 -75.19557372 16.24683247 -72.0625 17 C-69.04858027 17.20259007 -69.04858027 17.20259007 -66.6875 16 C-64.30631083 13.17784987 -64.27244704 10.60992324 -64 7 C-62.68 7 -61.36 7 -60 7 C-60 7.99 -60 8.98 -60 10 C-40.2 10 -20.4 10 0 10 C0 6.7 0 3.4 0 0 Z " fill="#0687C8" transform="translate(118,120)"/>
<path d="M0 0 C2.96053215 5.08841463 4.72729051 8.93924575 4 15 C3.34 15.66 2.68 16.32 2 17 C2 17.99 2 18.98 2 20 C1.87069704 21.33893906 1.7231663 22.67618013 1.5625 24.01171875 C1.42714844 25.14770508 1.42714844 25.14770508 1.2890625 26.30664062 C1.19367188 27.09232422 1.09828125 27.87800781 1 28.6875 C0.85691406 29.88342773 0.85691406 29.88342773 0.7109375 31.10351562 C0.47552634 33.06919884 0.23796974 35.0346249 0 37 C-0.66 37 -1.32 37 -2 37 C-2.2475 37.680625 -2.495 38.36125 -2.75 39.0625 C-3.75400191 41.42190448 -4.81627098 43.43914409 -6.125 45.625 C-8.27152061 49.4887371 -8.0752585 51.00282483 -7.75 55.3125 C-8.10233963 60.50950959 -10.39114428 63.39114428 -14 67 C-15.485 66.505 -15.485 66.505 -17 66 C-16.649375 66.598125 -16.29875 67.19625 -15.9375 67.8125 C-15 70 -15 70 -16 73 C-18.66754531 67.44625812 -21.09489024 61.94796663 -22.9375 56.0625 C-24.3186381 51.71614295 -26.02258451 47.79702255 -28.125 43.75 C-32.5539825 35.08459945 -32.5539825 35.08459945 -33 30 C-31.3971758 28.19558348 -29.769306 26.63283617 -28 25 C-26.52832827 23.52763807 -25.06275843 22.0491651 -23.6015625 20.56640625 C-21.94277364 18.89837255 -20.28391766 17.2304056 -18.625 15.5625 C-17.8 14.72912109 -16.975 13.89574219 -16.125 13.03710938 C-3.1394207 0 -3.1394207 0 0 0 Z " fill="#08A7BF" transform="translate(258,131)"/>
<path d="M0 0 C0 0.66 0 1.32 0 2 C-2.08219049 2.81542431 -4.16579761 3.62723189 -6.25 4.4375 C-7.41015625 4.88996094 -8.5703125 5.34242187 -9.765625 5.80859375 C-12.19619474 6.70391231 -14.48931145 7.41665095 -17 8 C-20.15973246 9.2748112 -20.15973246 9.2748112 -22 12 C-23.890625 12.23828125 -23.890625 12.23828125 -26.25 12.3125 C-29.78505447 12.65024406 -30.95816985 12.97124178 -34 15.0625 C-36.70039185 19.02870053 -37 21.19159866 -37 26 C-35.64339984 28.97160035 -34.29716559 30.70283441 -32 33 C-30.03309626 33.67292501 -30.03309626 33.67292501 -27.875 34.125 C-25.956875 34.558125 -25.956875 34.558125 -24 35 C-24.8515348 39.21332321 -26.82478585 41.24357908 -30 44 C-30.63035156 44.54914062 -31.26070313 45.09828125 -31.91015625 45.6640625 C-40.38552023 52.64739326 -48.76319171 57.87845473 -60.015625 57.2109375 C-60.67046875 57.14132813 -61.3253125 57.07171875 -62 57 C-61.59007812 56.45730469 -61.18015625 55.91460937 -60.7578125 55.35546875 C-59.94957031 54.28232422 -59.94957031 54.28232422 -59.125 53.1875 C-58.59132813 52.47980469 -58.05765625 51.77210937 -57.5078125 51.04296875 C-56.29185219 49.39543703 -55.13583859 47.70375789 -54 46 C-54.68707031 46.433125 -55.37414062 46.86625 -56.08203125 47.3125 C-56.98308594 47.869375 -57.88414062 48.42625 -58.8125 49 C-59.70582031 49.556875 -60.59914063 50.11375 -61.51953125 50.6875 C-64 52 -64 52 -67 52 C-67 51.34 -67 50.68 -67 50 C-67.66 50 -68.32 50 -69 50 C-68.55785693 44.42057559 -67.2132991 41.1994497 -63.9375 36.6875 C-63.53772949 36.130625 -63.13795898 35.57375 -62.72607422 35 C-59.54774014 30.61678266 -56.18976786 26.38029718 -52.7265625 22.21875 C-50.92511855 20.03892598 -50.92511855 20.03892598 -49.671875 17.46875 C-43.90267397 8.94974287 -26.75498662 2.87873816 -17 1 C-14.45495802 0.77641171 -11.9240777 0.58644036 -9.375 0.4375 C-8.694375 0.39431641 -8.01375 0.35113281 -7.3125 0.30664062 C-2.38678075 0 -2.38678075 0 0 0 Z " fill="#FAFBFB" transform="translate(354,18)"/>
<path d="M0 0 C5.94 0 11.88 0 18 0 C18 9 18 9 17.265625 13.40625 C17.10545898 14.3866626 16.94529297 15.3670752 16.78027344 16.37719727 C16.6052832 17.40772217 16.43029297 18.43824707 16.25 19.5 C16.07243164 20.57628662 15.89486328 21.65257324 15.71191406 22.76147461 C15.14727719 26.17534453 14.57377828 29.58765586 14 33 C13.61399575 35.32412124 13.22857289 37.64833911 12.84375 39.97265625 C11.9025587 45.64957811 10.95342046 51.32511973 10 57 C4.06 57 -1.88 57 -8 57 C-8 51.94505193 -7.99729681 47.98378086 -7.1953125 43.171875 C-7.02386719 42.12386719 -6.85242188 41.07585937 -6.67578125 39.99609375 C-6.49402344 38.92488281 -6.31226563 37.85367188 -6.125 36.75 C-5.95097656 35.69425781 -5.77695312 34.63851562 -5.59765625 33.55078125 C-5.07142331 30.36609745 -4.53636581 27.18299125 -4 24 C-3.64541705 21.87506942 -3.29123818 19.75007137 -2.9375 17.625 C-1.95833333 11.75 -0.97916667 5.875 0 0 Z " fill="#15B6AC" transform="translate(868,128)"/>
<path d="M0 0 C-2.6684337 12.56972718 -6.84315515 24.1116808 -13.75 34.9375 C-14.33322021 35.85184814 -14.33322021 35.85184814 -14.92822266 36.78466797 C-15.89175554 38.23185987 -16.93892632 39.62272636 -18 41 C-18.66 41 -19.32 41 -20 41 C-20.103125 40.360625 -20.20625 39.72125 -20.3125 39.0625 C-20.539375 38.381875 -20.76625 37.70125 -21 37 C-22.485 36.505 -22.485 36.505 -24 36 C-24 35.01 -24 34.02 -24 33 C-25.216875 32.938125 -26.43375 32.87625 -27.6875 32.8125 C-30.97858008 32.38069162 -32.09828904 31.93098854 -34.9375 29.9375 C-37.51299624 26.26936899 -38.44941539 23.47719485 -38 19 C-36.51944626 14.98918775 -34.5993388 12.3995592 -31 10 C-28.73828125 9.8046875 -28.73828125 9.8046875 -26.3125 9.875 C-25.10013672 9.90207031 -25.10013672 9.90207031 -23.86328125 9.9296875 C-22.94095703 9.96449219 -22.94095703 9.96449219 -22 10 C-21.67 9.01 -21.34 8.02 -21 7 C-17.66183182 4.95024761 -13.93297536 3.95148539 -10.21875 2.78125 C-7.98251064 2.05816664 -7.98251064 2.05816664 -5.96875 0.90625 C-4 0 -4 0 0 0 Z " fill="#D3D4D6" transform="translate(354,20)"/>
<path d="M0 0 C0.33 1.32 0.66 2.64 1 4 C1.99 3.67 2.98 3.34 4 3 C4.66 3.33 5.32 3.66 6 4 C6.53625 3.484375 7.0725 2.96875 7.625 2.4375 C10.78747346 0.52337133 12.47718882 1.27130892 16 2 C15.98839844 3.13179687 15.97679687 4.26359375 15.96484375 5.4296875 C15.95546546 6.91145669 15.9463653 8.39322765 15.9375 9.875 C15.92912109 10.62136719 15.92074219 11.36773437 15.91210938 12.13671875 C15.79311916 16.19845578 15.79311916 16.19845578 17 20 C22.77807024 20.2358396 27.51324804 19.86783046 33 18 C32.67 22.62 32.34 27.24 32 32 C13.82547669 38.05817444 13.82547669 38.05817444 3.94921875 33.21484375 C0.60324753 31.12947892 -1.26594871 28.46810258 -3 25 C-3.68184885 16.21463987 -2.54241918 8.39906335 0 0 Z " fill="#13B3AC" transform="translate(900,151)"/>
<path d="M0 0 C0.61875 0.33 1.2375 0.66 1.875 1 C3.91235701 2.25069547 3.91235701 2.25069547 5.8125 1.4375 C9.33020682 0.73395864 12.023777 2.25919032 15 4 C16.86419688 5.45876387 18.61933082 6.99487496 20.375 8.58203125 C22.42930811 10.37461261 24.61763408 11.68342936 27 13 C28.66666667 14 30.33333333 15 32 16 C31.70544888 23.65832917 28.62827658 29.34261178 25 36 C19.97166777 34.49219198 17.58241701 32.85798755 14 29 C11.39805317 26.83171097 8.81918569 24.87945712 6 23 C6 22.34 6 21.68 6 21 C4.68 21 3.36 21 2 21 C2 20.34 2 19.68 2 19 C-0.91482778 18.19032562 -2.46113217 17.78154007 -5.3125 18.9375 C-5.869375 19.288125 -6.42625 19.63875 -7 20 C-7.99 19.34 -8.98 18.68 -10 18 C-9.54738642 16.56068883 -9.08767021 15.12361001 -8.625 13.6875 C-8.36976563 12.88699219 -8.11453125 12.08648437 -7.8515625 11.26171875 C-7 9 -7 9 -5 6 C-4.34 6 -3.68 6 -3 6 C-2.814375 4.7934375 -2.814375 4.7934375 -2.625 3.5625 C-2.41875 2.716875 -2.2125 1.87125 -2 1 C-1.34 0.67 -0.68 0.34 0 0 Z " fill="#3CCAA0" transform="translate(296,142)"/>
<path d="M0 0 C2.80604789 1.78566684 4.57022602 3.33580384 6.375 6.125 C7.69832736 12.21230584 6.94540788 17.96820737 3.8125 23.375 C0.99931589 27.34560842 -1.9824188 30.48320952 -6.984375 31.33984375 C-11.49940225 31.55201608 -14.49153572 30.80677143 -18 28 C-21.56234301 24.0572126 -21.50257346 20.96545551 -21.3515625 15.82421875 C-20.66482157 10.30739994 -18.52025242 6.52025242 -14.625 2.625 C-9.62430256 -0.47066985 -5.7459924 -1.7115722 0 0 Z " fill="#F8FCFC" transform="translate(772,141)"/>
<path d="M0 0 C3.09242536 0.68582014 4.83279893 2.1276707 6.9375 4.4296875 C6.9375 5.4196875 6.9375 6.4096875 6.9375 7.4296875 C31.0275 7.4296875 55.1175 7.4296875 79.9375 7.4296875 C79.9375 9.4096875 79.9375 11.3896875 79.9375 13.4296875 C55.58182007 13.5376839 31.27214331 13.56715964 6.9375 12.4296875 C6.504375 13.63625 6.504375 13.63625 6.0625 14.8671875 C4.9375 17.4296875 4.9375 17.4296875 2.9375 18.4296875 C-1.80040088 19.08126522 -5.05769212 19.08588857 -9.125 16.4296875 C-11.2704849 13.10764637 -11.81858948 11.25114128 -11.5390625 7.3671875 C-10.05906566 1.35015118 -5.60558165 -0.36096548 0 0 Z " fill="#0267B3" transform="translate(80.0625,143.5703125)"/>
<path d="M0 0 C0.433125 1.11375 0.86625 2.2275 1.3125 3.375 C2.69911119 7.17512334 2.69911119 7.17512334 6 9 C6.33 9.99 6.66 10.98 7 12 C8.62332967 13.38576923 10.28724465 14.72641268 12 16 C11.50633329 20.171126 10.54609482 21.90787263 7.3125 24.5625 C6.59449219 25.15289062 5.87648438 25.74328125 5.13671875 26.3515625 C-2.18483412 32 -2.18483412 32 -5 32 C-5 31.34 -5 30.68 -5 30 C-9.29235546 31.52309387 -13.08929071 33.69562115 -17.01171875 35.9765625 C-19 37 -19 37 -21 37 C-19.42503263 29.69787858 -16.76671785 22.92735461 -14 16 C-15.32 16 -16.64 16 -18 16 C-14.61172194 8.80593094 -8.95040689 -1.02290364 0 0 Z " fill="#0674BA" transform="translate(274,74)"/>
<path d="M0 0 C1.32 0 2.64 0 4 0 C8.02703514 9.94174301 8.67563212 15.29747152 6 26 C-5.55 26 -17.1 26 -29 26 C-29 25.34 -29 24.68 -29 24 C-31.475 23.01 -31.475 23.01 -34 22 C-34 21.34 -34 20.68 -34 20 C-32.68 20 -31.36 20 -30 20 C-30 19.01 -30 18.02 -30 17 C-23.07 17 -16.14 17 -9 17 C-9.66 13.37 -10.32 9.74 -11 6 C-10.01 6 -9.02 6 -8 6 C-7.34 4.35 -6.68 2.7 -6 1 C-3.525 1.495 -3.525 1.495 -1 2 C-0.67 1.34 -0.34 0.68 0 0 Z " fill="#13B5AC" transform="translate(689,134)"/>
<path d="M0 0 C2.475 0.495 2.475 0.495 5 1 C5.33 2.32 5.66 3.64 6 5 C33.06 5 60.12 5 88 5 C87.67 6.65 87.34 8.3 87 10 C59.94 10 32.88 10 5 10 C4.67 11.32 4.34 12.64 4 14 C2.41876423 16.07956462 1.42850179 16.87321483 -1.0859375 17.6171875 C-4.95193981 18.05260756 -7.31743864 18.30497423 -10.9375 16.6875 C-13 15 -13 15 -15 13 C-14.61121812 9.98694043 -13.73543126 8.60314689 -12 6 C-11.46375 6.99 -10.9275 7.98 -10.375 9 C-8.30231384 12.31279778 -8.30231384 12.31279778 -4.875 12.5 C-1.87947452 12.26313679 -1.87947452 12.26313679 0 10 C0.24287489 7.55987051 0.24287489 7.55987051 0.125 4.875 C0.10695313 3.96492187 0.08890625 3.05484375 0.0703125 2.1171875 C0.04710937 1.41851562 0.02390625 0.71984375 0 0 Z " fill="#036CBA" transform="translate(30,167)"/>
<path d="M0 0 C1.875 0.1875 1.875 0.1875 4 1 C5.1328125 3.55078125 5.1328125 3.55078125 6 6 C-18.13311939 31.41578518 -18.13311939 31.41578518 -32.75 32.875 C-36.71176396 32.61802072 -38.43302649 31.01267833 -41.0625 28.125 C-44 24.40816327 -44 24.40816327 -44 22 C-43.01 21.34 -42.02 20.68 -41 20 C-40.67 19.01 -40.34 18.02 -40 17 C-37.9375 15.8125 -37.9375 15.8125 -36 15 C-36 15.99 -36 16.98 -36 18 C-26.7503148 19.34269624 -19.66971405 15.77683005 -12 11 C-9.41204678 8.94180761 -7.01971538 6.82968046 -4.671875 4.50390625 C-3 3 -3 3 -1 3 C-0.67 2.01 -0.34 1.02 0 0 Z " fill="#CDCDCE" transform="translate(329,56)"/>
<path d="M0 0 C1.01835937 0.0103125 2.03671875 0.020625 3.0859375 0.03125 C3.92382812 0.1859375 4.76171875 0.340625 5.625 0.5 C6.285 1.49 6.945 2.48 7.625 3.5 C1.685 12.41 1.685 12.41 -4.375 21.5 C-6.025 21.17 -7.675 20.84 -9.375 20.5 C-16.92392413 19.89701374 -23.27845478 20.91384035 -30.375 23.5 C-28.32199322 18.97217791 -25.23705853 16.03128254 -21.75 12.5625 C-21.15832031 11.95470703 -20.56664062 11.34691406 -19.95703125 10.72070312 C-14.21055106 4.96801724 -8.54210975 -0.26350981 0 0 Z " fill="#0AA5D7" transform="translate(277.375,46.5)"/>
<path d="M0 0 C13.86 0 27.72 0 42 0 C42 6.27 42 12.54 42 19 C41.34 18.34 40.68 17.68 40 17 C39.01 17.33 38.02 17.66 37 18 C34.6593935 17.72230092 32.32375692 17.39460023 30 17 C29.67 15.68 29.34 14.36 29 13 C28.01 13.99 27.02 14.98 26 16 C23 14 23 14 22 11 C21.01 11.495 21.01 11.495 20 12 C16.9375 11.3125 16.9375 11.3125 14 10 C13.21167531 8.1418061 13 6.98218903 13 5 C12.01 4.67 11.02 4.34 10 4 C9.34 3.34 8.68 2.68 8 2 C5.34462628 1.43479997 2.70855287 1.26211802 0 1 C0 0.67 0 0.34 0 0 Z " fill="#0F93CF" transform="translate(118,120)"/>
<path d="M0 0 C1.6191383 6.34162499 0.29126386 10.40583981 -3 16 C-6.11106539 20.40972113 -9.8301087 23.48890514 -14.0625 26.75 C-14.68705078 27.24371094 -15.31160156 27.73742187 -15.95507812 28.24609375 C-18.6097156 30.3142745 -20.78426158 31.92808719 -24 33 C-23.71125 31.94941406 -23.4225 30.89882812 -23.125 29.81640625 C-21.14693555 22.41188691 -19.44784521 15.73016703 -20 8 C-17.61072363 6.65359017 -15.2147427 5.32290947 -12.8125 4 C-11.80219727 3.42765625 -11.80219727 3.42765625 -10.77148438 2.84375 C-7.04780378 0.8093489 -4.37134612 -0.54323525 0 0 Z " fill="#0CA5D6" transform="translate(315,82)"/>
<path d="M0 0 C3.19689042 1.52578861 5.73855312 3.27220956 8 6 C8.77987226 10.08286063 8.34271648 13.94900279 7.0625 17.875 C3.92997253 21.10245254 0.39304806 22.2562035 -4 23 C-8.03227168 22.19354566 -10.56847339 20.29992897 -13 17 C-14.23982343 12.27317317 -14.60266389 9.45933078 -12.25 5.125 C-8.59450266 0.04792036 -6.07646021 -0.52383278 0 0 Z " fill="#044EA1" transform="translate(330,30)"/>
<path d="M0 0 C2.15372704 1.58390688 2.8868288 2.45555477 3.43359375 5.0859375 C3.44054785 9.16104293 3.34216197 11.43366295 1.1875 15 C-2.27365635 18.16448581 -5.46178764 18.30916224 -10.0625 18.19921875 C-12 18 -12 18 -14.4375 17.0625 C-16.91724654 13.78923457 -17.21044481 10.04755522 -17 6 C-15.84227013 2.97794458 -15.14573518 2.10308098 -12.4375 0.1875 C-8.10542297 -1.3090357 -4.40301716 -1.3250985 0 0 Z " fill="#22C5AF" transform="translate(887,102)"/>
<path d="M0 0 C2.4375 1.4375 2.4375 1.4375 4 4 C4.64500016 8.98038101 4.82870855 12.75693718 2 17 C-2.20133768 19.40076439 -5.37926327 19.23769734 -10 18 C-13 16 -13 16 -15 13 C-15.45488288 8.52299484 -14.8314293 5.1085724 -12.125 1.5 C-7.92822542 -1.46242911 -4.8745258 -1.11173395 0 0 Z " fill="#7B7A7A" transform="translate(626,213)"/>
<path d="M0 0 C2.125 2.5 2.125 2.5 2.125 11.5 C-6.455 11.5 -15.035 11.5 -23.875 11.5 C-21.60412966 4.68738899 -21.60412966 4.68738899 -18.0625 1.6875 C-17.06283203 0.81158203 -17.06283203 0.81158203 -16.04296875 -0.08203125 C-10.76722066 -3.53265568 -5.41400225 -2.82469683 0 0 Z " fill="#F0F5F9" transform="translate(486.875,139.5)"/>
<path d="M0 0 C4.95 0 9.9 0 15 0 C15 16.69686629 9.05730625 33.31385544 -2 46 C-2.46535156 46.59425781 -2.93070312 47.18851563 -3.41015625 47.80078125 C-4.55037465 49.24683082 -5.76809507 50.63121674 -7 52 C-7.66 52 -8.32 52 -9 52 C-9.33 52.99 -9.66 53.98 -10 55 C-12.11205447 56.82470012 -14.21001529 58.51748205 -16.4375 60.1875 C-17.03626953 60.65091797 -17.63503906 61.11433594 -18.25195312 61.59179688 C-22.73431747 65 -22.73431747 65 -25 65 C-25.33 65.99 -25.66 66.98 -26 68 C-26 67.34 -26 66.68 -26 66 C-26.99 65.67 -27.98 65.34 -29 65 C-28.09378906 64.31035156 -27.18757813 63.62070313 -26.25390625 62.91015625 C-4.6425508 46.32103242 6.40396873 28.38412507 13 2 C8.71 1.67 4.42 1.34 0 1 C0 0.67 0 0.34 0 0 Z " fill="#AFB0B2" transform="translate(341,16)"/>
<path d="M0 0 C3.23948608 0.84905885 4.90715111 2.96987639 6.9375 5.5078125 C5.9475 6.9928125 5.9475 6.9928125 4.9375 8.5078125 C4.77083333 11.5078125 4.77083333 11.5078125 4.9375 14.5078125 C4.9375 15.4978125 4.9375 16.4878125 4.9375 17.5078125 C1.44819104 19.25246698 -2.25536977 19.07231802 -6.0625 18.5078125 C-9.11317422 16.51553546 -10.65676669 15.17098376 -11.53515625 11.5703125 C-11.82491935 7.64736585 -11.28136932 5.83611648 -9.0625 2.5078125 C-5.72905006 0.28551254 -3.92418332 -0.22296496 0 0 Z " fill="#0983C6" transform="translate(80.0625,143.4921875)"/>
<path d="M0 0 C3 2.5 3 2.5 5 5 C4.01 5.33 3.02 5.66 2 6 C2.103125 7.0725 2.20625 8.145 2.3125 9.25 C2 13 2 13 -0.125 15.5 C-3 17 -3 17 -6.0625 17 C-9.33684855 15.88532815 -10.71296766 14.53207152 -13 12 C-13.66 12 -14.32 12 -15 12 C-15.33 12.99 -15.66 13.98 -16 15 C-16.78279267 7.01551481 -16.78279267 7.01551481 -13.6875 3 C-9.49449467 -0.12037606 -5.14069694 -0.94012746 0 0 Z " fill="#118ECC" transform="translate(52,121)"/>
<path d="M0 0 C4.8044072 0.02061977 4.8044072 0.02061977 7.8125 2.3125 C8.493125 3.3025 8.493125 3.3025 9.1875 4.3125 C8.1975 4.9725 7.2075 5.6325 6.1875 6.3125 C6.1875 8.34258322 6.19152935 10.37334291 6.2578125 12.40234375 C6.1875 14.3125 6.1875 14.3125 5.0625 16.3125 C2.20565949 17.83614827 0.36974791 17.83205068 -2.8125 17.3125 C-5.1875 14.8125 -5.1875 14.8125 -6.8125 12.3125 C-8.1325 13.6325 -9.4525 14.9525 -10.8125 16.3125 C-11.59984859 7.30173284 -11.59984859 7.30173284 -8.375 3.25 C-7.529375 2.610625 -6.68375 1.97125 -5.8125 1.3125 C-4.16284831 -0.33715169 -2.2648645 0.06300502 0 0 Z " fill="#0F6EB9" transform="translate(24.8125,162.6875)"/>
<path d="M0 0 C0.99 0.33 1.98 0.66 3 1 C3 1.66 3 2.32 3 3 C5.475 3.99 5.475 3.99 8 5 C8 5.66 8 6.32 8 7 C9.32 7 10.64 7 12 7 C12 7.66 12 8.32 12 9 C12.78375 9.12375 13.5675 9.2475 14.375 9.375 C17.63608835 10.15144961 18.66601959 11.66601959 21 14 C24.79692206 17.36298811 28.33346836 19.16998759 33 21 C32.25 25.75 32.25 25.75 30 28 C25.51884905 26.59163827 23.20839787 24.36881776 20 21 C17.39805317 18.83171097 14.81918569 16.87945712 12 15 C12 14.34 12 13.68 12 13 C10.68 13 9.36 13 8 13 C8 12.34 8 11.68 8 11 C5.08517222 10.19032562 3.53886783 9.78154007 0.6875 10.9375 C0.130625 11.288125 -0.42625 11.63875 -1 12 C-1.99 11.34 -2.98 10.68 -4 10 C-3.52449439 8.51965236 -3.04448784 7.04074979 -2.5625 5.5625 C-2.29566406 4.73878906 -2.02882813 3.91507813 -1.75390625 3.06640625 C-1 1 -1 1 0 0 Z " fill="#2CC4A5" transform="translate(290,150)"/>
<path d="M0 0 C10.625 -0.125 10.625 -0.125 14 1 C15.83210422 4.66420845 15.24064286 8.82352381 14.4375 12.75 C13.77859647 15.15493756 13.77859647 15.15493756 15 18 C13.68 18 12.36 18 11 18 C10.34 16.35 9.68 14.7 9 13 C7.35 13 5.7 13 4 13 C4 14.65 4 16.3 4 18 C2.68 18 1.36 18 0 18 C0 12.06 0 6.12 0 0 Z " fill="#767575" transform="translate(840,213)"/>
<path d="M0 0 C-1.37823052 2.9684965 -2.71713829 5.63560751 -5 8 C-8.1875 8.75 -8.1875 8.75 -11 9 C-11.103125 9.639375 -11.20625 10.27875 -11.3125 10.9375 C-11.539375 11.618125 -11.76625 12.29875 -12 13 C-12.99 13.33 -13.98 13.66 -15 14 C-11.23949122 20.16772852 -11.23949122 20.16772852 -5.125 23.5 C-4.09375 23.665 -3.0625 23.83 -2 24 C-3.78177133 26.3756951 -4.80075988 26.95924634 -7.75 27.5625 C-12.25169991 26.78335963 -15.01676958 24.40688445 -18 21 C-18 20.34 -18 19.68 -18 19 C-18.763125 18.979375 -19.52625 18.95875 -20.3125 18.9375 C-21.199375 18.628125 -22.08625 18.31875 -23 18 C-24.05047644 15.68895182 -25.05007438 13.35416349 -26 11 C-28.0351761 9.5181036 -28.0351761 9.5181036 -30 9 C-29.01 6.69 -28.02 4.38 -27 2 C-23 7 -23 7 -19 12 C-15.85709911 10.59304437 -13.5899157 8.88972435 -11.0625 6.5625 C-3.72070312 0 -3.72070312 0 0 0 Z " fill="#BCBDBE" transform="translate(300,64)"/>
<path d="M0 0 C10.33515262 -0.36911259 10.33515262 -0.36911259 13.3359375 1.296875 C15 3 15 3 15.375 6.4375 C15 10 15 10 13.875 12.1875 C13.441875 13.0846875 13.441875 13.0846875 13 14 C13.78309467 16.23470405 13.78309467 16.23470405 15 18 C12.625 17.6875 12.625 17.6875 10 17 C9.34 16.01 8.68 15.02 8 14 C5.94074861 13.27617533 5.94074861 13.27617533 4 13 C4 14.65 4 16.3 4 18 C2.68 18 1.36 18 0 18 C0 12.06 0 6.12 0 0 Z " fill="#6E6C6C" transform="translate(903,213)"/>
<path d="M0 0 C11.47540385 -0.37017432 11.47540385 -0.37017432 13.87109375 1.3203125 C15.58514398 3.87062945 15.25448311 6.00982349 15 9 C14.67 9.66 14.34 10.32 14 11 C13.34 11 12.68 11 12 11 C12.99 13.31 13.98 15.62 15 18 C13.35 18 11.7 18 10 18 C9.34 16.35 8.68 14.7 8 13 C6.35 13 4.7 13 3 13 C3 14.65 3 16.3 3 18 C2.01 18 1.02 18 0 18 C0 12.06 0 6.12 0 0 Z " fill="#7A7979" transform="translate(497,213)"/>
<path d="M0 0 C10.33515262 -0.36911259 10.33515262 -0.36911259 13.3359375 1.296875 C15 3 15 3 15.375 6.4375 C15 10 15 10 13.875 12.1875 C13.441875 13.0846875 13.441875 13.0846875 13 14 C13.78309467 16.23470405 13.78309467 16.23470405 15 18 C12.625 17.6875 12.625 17.6875 10 17 C9.34 16.01 8.68 15.02 8 14 C5.43717258 13.27034634 5.43717258 13.27034634 3 13 C3 14.65 3 16.3 3 18 C2.01 18 1.02 18 0 18 C0 12.06 0 6.12 0 0 Z " fill="#706F6F" transform="translate(662,213)"/>
<path d="M0 0 C1.5625 2.3125 1.5625 2.3125 1.5625 8.3125 C-6.0275 8.3125 -13.6175 8.3125 -21.4375 8.3125 C-19.26396463 2.87866156 -16.91023579 -0.11916771 -11.5 -2.5625 C-7.1303562 -2.8273269 -3.64444306 -2.52307596 0 0 Z " fill="#F8FBFB" transform="translate(678.4375,141.6875)"/>
<path d="M0 0 C1.65 0 3.3 0 5 0 C5.98592155 2.05927956 6.96347494 4.12256688 7.9375 6.1875 C8.48277344 7.33605469 9.02804687 8.48460937 9.58984375 9.66796875 C10.79460131 12.51466736 11.54776271 14.96027845 12 18 C10.68 18 9.36 18 8 18 C7.67 17.01 7.34 16.02 7 15 C4.03 14.67 1.06 14.34 -2 14 C-2.33 15.32 -2.66 16.64 -3 18 C-4.32 18 -5.64 18 -7 18 C-5.06375702 11.79522136 -2.74390859 5.89174281 0 0 Z " fill="#737272" transform="translate(822,213)"/>
<path d="M0 0 C2.26171875 0 2.26171875 0 5 1 C6.69677959 3.48664638 7.72431945 6.20388043 8.8125 9 C9.12380859 9.75023437 9.43511719 10.50046875 9.75585938 11.2734375 C12 16.73828984 12 16.73828984 12 18 C10.35 18 8.7 18 7 18 C6.67 17.01 6.34 16.02 6 15 C3.03 14.67 0.06 14.34 -3 14 C-3.33 15.32 -3.66 16.64 -4 18 C-5.32 18 -6.64 18 -8 18 C-6.65150163 13.64029169 -4.95092154 9.68658562 -2.875 5.625 C-2.33617187 4.56539062 -1.79734375 3.50578125 -1.2421875 2.4140625 C-0.83226562 1.61742187 -0.42234375 0.82078125 0 0 Z " fill="#717070" transform="translate(375,213)"/>
<path d="M0 0 C2.26171875 0.03515625 2.26171875 0.03515625 5 1 C6.53739986 3.51871891 7.68702675 5.74679904 8.8125 8.4375 C9.12380859 9.13166016 9.43511719 9.82582031 9.75585938 10.54101562 C12 15.63595467 12 15.63595467 12 18 C10.68 18 9.36 18 8 18 C7.67 16.68 7.34 15.36 7 14 C3.7 14 0.4 14 -3 14 C-3.33 15.32 -3.66 16.64 -4 18 C-5.32 17.67 -6.64 17.34 -8 17 C-7.0453859 14.72753814 -6.08648542 12.4570528 -5.125 10.1875 C-4.85558594 9.54490234 -4.58617187 8.90230469 -4.30859375 8.24023438 C-3.05304269 5.28509592 -1.78722822 2.68084233 0 0 Z " fill="#717070" transform="translate(524,213)"/>
<path d="M0 0 C1.32 0 2.64 0 4 0 C4 2.31 4 4.62 4 7 C6.64 7 9.28 7 12 7 C12 4.69 12 2.38 12 0 C13.32 0 14.64 0 16 0 C16 5.94 16 11.88 16 18 C14.68 18 13.36 18 12 18 C12 15.69 12 13.38 12 11 C9.03 11 6.06 11 3 11 C3 13.31 3 15.62 3 18 C2.01 18 1.02 18 0 18 C0 12.06 0 6.12 0 0 Z " fill="#868687" transform="translate(759,213)"/>
<path d="M0 0 C4.62 0 9.24 0 14 0 C14 0.99 14 1.98 14 3 C10.7 3 7.4 3 4 3 C4 4.32 4 5.64 4 7 C6.97 7 9.94 7 13 7 C13 8.32 13 9.64 13 11 C10.03 11 7.06 11 4 11 C4 12.32 4 13.64 4 15 C7.3 15 10.6 15 14 15 C14 15.99 14 16.98 14 18 C9.38 18 4.76 18 0 18 C0 12.06 0 6.12 0 0 Z " fill="#777777" transform="translate(436,213)"/>
<path d="M0 0 C4.62 0 9.24 0 14 0 C14 0.99 14 1.98 14 3 C10.7 3 7.4 3 4 3 C4 4.32 4 5.64 4 7 C6.64 7 9.28 7 12 7 C12 8.32 12 9.64 12 11 C9.36 11 6.72 11 4 11 C4 12.32 4 13.64 4 15 C6.97 15 9.94 15 13 15 C13 15.99 13 16.98 13 18 C8.71 18 4.42 18 0 18 C0 12.06 0 6.12 0 0 Z " fill="#787777" transform="translate(862,213)"/>
<path d="M0 0 C1.20849609 0.00644531 2.41699219 0.01289063 3.66210938 0.01953125 C5.55606445 0.04466797 5.55606445 0.04466797 7.48828125 0.0703125 C8.76251953 0.07933594 10.03675781 0.08835938 11.34960938 0.09765625 C14.50018752 0.12125609 17.65039108 0.15418056 20.80078125 0.1953125 C20.80078125 2.1753125 20.80078125 4.1553125 20.80078125 6.1953125 C6.28078125 6.1953125 -8.23921875 6.1953125 -23.19921875 6.1953125 C-23.19921875 5.8653125 -23.19921875 5.5353125 -23.19921875 5.1953125 C-15.27921875 4.8653125 -7.35921875 4.5353125 0.80078125 4.1953125 C-2.49921875 3.5353125 -5.79921875 2.8753125 -9.19921875 2.1953125 C-5.6590865 -0.16477567 -4.1879992 -0.03932394 0 0 Z " fill="#2A88C3" transform="translate(139.19921875,150.8046875)"/>
<path d="M0 0 C4.29 0 8.58 0 13 0 C13 0.99 13 1.98 13 3 C9.7 3 6.4 3 3 3 C3 4.32 3 5.64 3 7 C5.97 7 8.94 7 12 7 C12 8.32 12 9.64 12 11 C9.36 11 6.72 11 4 11 C4 12.32 4 13.64 4 15 C6.97 15 9.94 15 13 15 C13 15.99 13 16.98 13 18 C8.71 18 4.42 18 0 18 C0 12.06 0 6.12 0 0 Z " fill="#767576" transform="translate(560,213)"/>
<path d="M0 0 C4.29 0 8.58 0 13 0 C13 0.99 13 1.98 13 3 C10.03 3 7.06 3 4 3 C4 4.32 4 5.64 4 7 C6.64 7 9.28 7 12 7 C12 8.32 12 9.64 12 11 C9.03 11 6.06 11 3 11 C3 12.32 3 13.64 3 15 C6.3 15 9.6 15 13 15 C13 15.99 13 16.98 13 18 C8.71 18 4.42 18 0 18 C0 12.06 0 6.12 0 0 Z " fill="#747373" transform="translate(476,213)"/>
<path d="M0 0 C4.29 0 8.58 0 13 0 C13 0.99 13 1.98 13 3 C9.7 3 6.4 3 3 3 C3 4.32 3 5.64 3 7 C5.97 7 8.94 7 12 7 C12 8.32 12 9.64 12 11 C9.03 11 6.06 11 3 11 C3 12.32 3 13.64 3 15 C6.3 15 9.6 15 13 15 C13 15.99 13 16.98 13 18 C8.71 18 4.42 18 0 18 C0 12.06 0 6.12 0 0 Z " fill="#666464" transform="translate(883,213)"/>
<path d="M0 0 C4.29 0 8.58 0 13 0 C13 0.99 13 1.98 13 3 C9.7 3 6.4 3 3 3 C3 4.32 3 5.64 3 7 C5.97 7 8.94 7 12 7 C12 8.32 12 9.64 12 11 C9.03 11 6.06 11 3 11 C3 12.32 3 13.64 3 15 C6.3 15 9.6 15 13 15 C13 15.99 13 16.98 13 18 C8.71 18 4.42 18 0 18 C0 12.06 0 6.12 0 0 Z " fill="#757474" transform="translate(716,213)"/>
<path d="M0 0 C2.51616834 0.56543109 3.4562812 1.51731443 5.0859375 3.46875 C1.45506018 5.84278517 -0.77609505 5.18839651 -4.9140625 4.46875 C-7.22969337 6.35375271 -7.22969337 6.35375271 -7.1640625 9.46875 C-7.22969337 12.58374729 -7.22969337 12.58374729 -4.9140625 14.46875 C-1.8227239 14.70654528 0.11698694 14.45840019 3.0859375 13.46875 C3.7459375 13.79875 4.4059375 14.12875 5.0859375 14.46875 C4.0859375 17.46875 4.0859375 17.46875 2.5234375 18.71875 C-1.12945667 19.84271744 -4.27358059 19.60267059 -7.9140625 18.46875 C-10.50267347 16.33314595 -11.62476069 14.83260138 -12.32421875 11.53515625 C-12.61150015 7.63844194 -12.13467518 5.81034382 -9.9765625 2.46875 C-6.36354183 0.1092263 -4.21245903 -0.05750797 0 0 Z " fill="#797979" transform="translate(402.9140625,212.53125)"/>
<path d="M0 0 C0.99 0.66 1.98 1.32 3 2 C3 2.66 3 3.32 3 4 C1.0625 4.5625 1.0625 4.5625 -1 5 C-1.33 4.67 -1.66 4.34 -2 4 C-4.45809998 3.7499227 -4.45809998 3.7499227 -7 4 C-9.31563087 5.88500271 -9.31563087 5.88500271 -9.25 9 C-9.31563087 12.11499729 -9.31563087 12.11499729 -7 14 C-4.58354218 14.16687448 -4.58354218 14.16687448 -2 14 C-0.68 14 0.64 14 2 14 C2 14.99 2 15.98 2 17 C-1.53430656 19.35620437 -2.83571287 19.48991613 -7 19 C-12.70769231 15.87692308 -12.70769231 15.87692308 -14 12 C-14.47482431 7.72658121 -14.45704318 5.69293644 -12.0625 2.0625 C-8.04468984 -0.64337215 -4.73089406 -0.84163846 0 0 Z " fill="#767575" transform="translate(808,213)"/>
<path d="M0 0 C0.7734375 -0.00515625 1.546875 -0.0103125 2.34375 -0.015625 C4.5 0.25 4.5 0.25 7.5 2.25 C7.17 3.24 6.84 4.23 6.5 5.25 C5.241875 5.023125 3.98375 4.79625 2.6875 4.5625 C-0.56159756 4.14253831 -0.56159756 4.14253831 -3.5625 5.3125 C-4.9569529 8.19436932 -4.28906644 10.22524531 -3.5 13.25 C-2.39674453 14.5837793 -2.39674453 14.5837793 0.375 14.3125 C1.40625 14.291875 2.4375 14.27125 3.5 14.25 C4.49 14.25 5.48 14.25 6.5 14.25 C6.5 15.24 6.5 16.23 6.5 17.25 C2.9913604 19.58909307 1.62910567 19.66291057 -2.5 19.25 C-5.99406769 17.58237678 -7.32670681 16.50993978 -9.5 13.25 C-9.80398272 9.07023765 -9.96736434 5.75625459 -7.5 2.25 C-4.377998 0.16866533 -3.56733011 -0.0237822 0 0 Z " fill="#7B7A7B" transform="translate(744.5,212.75)"/>
<path d="M0 0 C0.99 0.66 1.98 1.32 3 2 C3 2.66 3 3.32 3 4 C0.46053077 4.84648974 -0.90562398 5.02071669 -3.5625 4.4375 C-6.24805134 3.66489008 -6.24805134 3.66489008 -9 6 C-9.41666667 9 -9.41666667 9 -9 12 C-7.19046912 14.25550736 -7.19046912 14.25550736 -4.625 14.125 C-3.325625 14.063125 -3.325625 14.063125 -2 14 C-0.68 14 0.64 14 2 14 C2 14.99 2 15.98 2 17 C-1.72070085 18.86035042 -5.94774756 18.56208663 -10 18 C-12.78993395 15.87433604 -13.6918173 14.48406426 -14.40234375 11.0625 C-14.70475664 7.1680121 -14.21885933 5.33887896 -12.0625 2 C-8.03875324 -0.62775298 -4.69760034 -0.83571542 0 0 Z " fill="#737273" transform="translate(427,213)"/>
<path d="M0 0 C-0.33 4.95 -0.66 9.9 -1 15 C-1.33 14.01 -1.66 13.02 -2 12 C-3.97536745 12.34786708 -3.97536745 12.34786708 -6 13 C-6.33 13.66 -6.66 14.32 -7 15 C-7.33 14.34 -7.66 13.68 -8 13 C-8.99 13.495 -8.99 13.495 -10 14 C-12.14210449 12.23043542 -12.96060573 11.12424348 -13.8125 8.4375 C-13.874375 7.633125 -13.93625 6.82875 -14 6 C-13.34 5.34 -12.68 4.68 -12 4 C-12.33 3.34 -12.66 2.68 -13 2 C-11.39658445 1.66307215 -9.79223445 1.33058907 -8.1875 1 C-7.29417969 0.814375 -6.40085937 0.62875 -5.48046875 0.4375 C-3 0 -3 0 0 0 Z " fill="#21C3B1" transform="translate(923,111)"/>
<path d="M0 0 C0.99 0 1.98 0 3 0 C3.06058594 0.84304687 3.12117187 1.68609375 3.18359375 2.5546875 C3.26738281 3.65039062 3.35117187 4.74609375 3.4375 5.875 C3.51871094 6.96554688 3.59992187 8.05609375 3.68359375 9.1796875 C3.83001703 11.94728971 3.83001703 11.94728971 5 14 C6.65 14 8.3 14 10 14 C11.35091528 11.29816945 11.33858058 8.88191794 11.5625 5.875 C11.64628906 4.77929688 11.73007812 3.68359375 11.81640625 2.5546875 C11.87699219 1.71164063 11.93757812 0.86859375 12 0 C12.99 0 13.98 0 15 0 C15.0809723 2.43816585 15.14046972 4.87364384 15.1875 7.3125 C15.22520508 8.34793945 15.22520508 8.34793945 15.26367188 9.40429688 C15.33700102 14.4640079 15.33700102 14.4640079 13.76953125 16.95703125 C11.54405231 18.26873738 10.07608192 18.40076082 7.5 18.375 C6.7265625 18.38273437 5.953125 18.39046875 5.15625 18.3984375 C3 18 3 18 1.23046875 16.95703125 C-0.6834709 13.91295581 -0.31392362 10.78428723 -0.1875 7.3125 C-0.17396484 6.61060547 -0.16042969 5.90871094 -0.14648438 5.18554688 C-0.11120182 3.45670171 -0.05739583 1.72825235 0 0 Z " fill="#717070" transform="translate(638,213)"/>
<path d="M0 0 C2.4375 1.6875 2.4375 1.6875 4 4 C4 7.19010075 3.44231072 8.50854364 1.3125 10.875 C-1.86249229 12.41959084 -3.66802549 12.0140792 -7 11 C-9.15502531 7.76746204 -9.46856135 6.74849077 -9 3 C-6.73644047 -0.64684591 -4.03172437 -0.57596062 0 0 Z " fill="#F1F8FA" transform="translate(50,126)"/>
<path d="M0 0 C1.875 1.125 1.875 1.125 3 3 C3.39365568 6.14924548 3.52854531 8.11909116 1.875 10.875 C-0.88090884 12.52854531 -2.85075452 12.39365568 -6 12 C-7.875 10.875 -7.875 10.875 -9 9 C-9.39365568 5.85075452 -9.52854531 3.88090884 -7.875 1.125 C-5.11909116 -0.52854531 -3.14924548 -0.39365568 0 0 Z " fill="#F3F8FA" transform="translate(28,168)"/>
<path d="M0 0 C3.15140423 0.34069235 4.60781561 0.58076841 6.8125 2.9375 C8 5 8 5 8 7 C8.66 7 9.32 7 10 7 C10.309375 6.21625 10.61875 5.4325 10.9375 4.625 C12 2 12 2 13 0 C14.32 0 15.64 0 17 0 C15.95218768 2.74043223 14.84078766 5.2929507 13.4375 7.875 C11.86516144 11.29312731 11.37265867 14.27341329 11 18 C9.68 18 8.36 18 7 18 C6.95875 17.05125 6.9175 16.1025 6.875 15.125 C6.25194923 10.44732655 3.78625285 6.94705738 1.27734375 3.0390625 C0 1 0 1 0 0 Z " fill="#797979" transform="translate(590,213)"/>
<path d="M0 0 C0.70703125 1.734375 0.70703125 1.734375 1 4 C-0.36328125 6.140625 -0.36328125 6.140625 -2.3125 8.25 C-2.94800781 8.95640625 -3.58351563 9.6628125 -4.23828125 10.390625 C-6 12 -6 12 -8 12 C-8.33 12.99 -8.66 13.98 -9 15 C-11.11205447 16.82470012 -13.21001529 18.51748205 -15.4375 20.1875 C-16.03626953 20.65091797 -16.63503906 21.11433594 -17.25195312 21.59179688 C-21.73431747 25 -21.73431747 25 -24 25 C-24.33 25.99 -24.66 26.98 -25 28 C-25 27.34 -25 26.68 -25 26 C-25.99 25.67 -26.98 25.34 -28 25 C-27.09378906 24.31035156 -26.18757813 23.62070313 -25.25390625 22.91015625 C-18.01185439 17.34394287 -11.29041538 11.65024847 -5 5 C-3.98277169 3.97557432 -2.96259563 2.95405317 -1.9375 1.9375 C-1.298125 1.298125 -0.65875 0.65875 0 0 Z " fill="#AEB0B2" transform="translate(340,56)"/>
<path d="M0 0 C-0.33 1.65 -0.66 3.3 -1 5 C-2.87491693 5.02730462 -4.74995225 5.04653244 -6.625 5.0625 C-8.19121094 5.07990234 -8.19121094 5.07990234 -9.7890625 5.09765625 C-13 5 -13 5 -15.9453125 4.4921875 C-20.6172327 3.73942286 -25.23517284 4.03573768 -29.953125 4.16015625 C-33 4 -33 4 -35 2 C-31.54034584 0.84678195 -28.89255715 0.93746683 -25.25 1 C-16.77292872 1.06941307 -8.50405839 -0.1384024 0 0 Z " fill="#0265B4" transform="translate(118,172)"/>
<path d="M0 0 C3.63 0 7.26 0 11 0 C11 0.33 11 0.66 11 1 C7.7 1 4.4 1 1 1 C1.33 3.97 1.66 6.94 2 10 C2.33 7.69 2.66 5.38 3 3 C6.375 2.875 6.375 2.875 10 3 C10.66 3.66 11.32 4.32 12 5 C11.46428571 8.53571429 11.46428571 8.53571429 10 10 C8.33382885 10.04063832 6.66611905 10.042721 5 10 C4.67 12.64 4.34 15.28 4 18 C2.68 18 1.36 18 0 18 C0 12.06 0 6.12 0 0 Z " fill="#7D7C7D" transform="translate(903,213)"/>
<path d="M0 0 C2.72274244 0.95295985 3.97489421 1.41788511 5.5 3.875 C5.27669287 7.52234979 5.11627165 9.25872835 2.5 11.875 C-1 11.6875 -1 11.6875 -4.5 10.875 C-6.5 7.875 -6.5 7.875 -6.3125 5.375 C-5.09866325 1.64011768 -4.13946173 -0.20697309 0 0 Z " fill="#F6F6F6" transform="translate(621.5,216.125)"/>
<path d="M0 0 C3.375 -0.125 3.375 -0.125 7 0 C7.66 0.66 8.32 1.32 9 2 C8.46428571 5.53571429 8.46428571 5.53571429 7 7 C5.33382885 7.04063832 3.66611905 7.042721 2 7 C2 7.66 2 8.32 2 9 C4.64 8.67 7.28 8.34 10 8 C10.66 10.31 11.32 12.62 12 15 C10.68 15 9.36 15 8 15 C7.34 13.35 6.68 11.7 6 10 C4.35 10 2.7 10 1 10 C1 11.65 1 13.3 1 15 C0.34 14.34 -0.32 13.68 -1 13 C-0.9765625 9.9609375 -0.9765625 9.9609375 -0.625 6.375 C-0.51414062 5.18648437 -0.40328125 3.99796875 -0.2890625 2.7734375 C-0.19367187 1.85820312 -0.09828125 0.94296875 0 0 Z " fill="#7F7E7F" transform="translate(843,216)"/>
<path d="M0 0 C4.95 0 9.9 0 15 0 C15 0.99 15 1.98 15 3 C13.35 3 11.7 3 10 3 C10 7.95 10 12.9 10 18 C8.68 18 7.36 18 6 18 C6 13.05 6 8.1 6 3 C4.02 3 2.04 3 0 3 C0 2.01 0 1.02 0 0 Z " fill="#7F7F7F" transform="translate(538,213)"/>
<path d="M0 0 C2.31 0 4.62 0 7 0 C10 5.625 10 5.625 10 9 C10.63106429 11.01151741 11.29373761 13.01363702 12 15 C9.625 14.6875 9.625 14.6875 7 14 C6.34 13.01 5.68 12.02 5 11 C2.43717258 10.27034634 2.43717258 10.27034634 0 10 C0 9.67 0 9.34 0 9 C1.65 8.67 3.3 8.34 5 8 C3.35 7.67 1.7 7.34 0 7 C0 4.69 0 2.38 0 0 Z " fill="#8F8F8F" transform="translate(665,216)"/>
<path d="M0 0 C1.32 0 2.64 0 4 0 C4 4.95 4 9.9 4 15 C6.64 15 9.28 15 12 15 C12 15.99 12 16.98 12 18 C8.04 18 4.08 18 0 18 C0 12.06 0 6.12 0 0 Z " fill="#6D6B6B" transform="translate(457,213)"/>
<path d="M0 0 C4.95 0 9.9 0 15 0 C15 0.99 15 1.98 15 3 C13.02 3 11.04 3 9 3 C9 7.95 9 12.9 9 18 C8.01 18 7.02 18 6 18 C6 13.05 6 8.1 6 3 C4.02 3 2.04 3 0 3 C0 2.01 0 1.02 0 0 Z " fill="#757474" transform="translate(694,213)"/>
<path d="M0 0 C0.33 0 0.66 0 1 0 C1.77380214 4.38487881 1.99656842 7.68153683 1 12 C0.96227087 13.9996441 0.95350094 16.00054061 1 18 C0.34 17.67 -0.32 17.34 -1 17 C-1.66 17.33 -2.32 17.66 -3 18 C-4.99960012 18.039992 -7.00047242 18.04346799 -9 18 C-6 12 -3 6 0 0 Z " fill="#1FC0B1" transform="translate(992,128)"/>
<path d="M0 0 C2.5 1.3125 2.5 1.3125 5 3 C5 3.99 5 4.98 5 6 C2.09399739 7.25664978 0.20395416 8 -3 8 C-3.99 9.485 -3.99 9.485 -5 11 C-7.625 11.6875 -7.625 11.6875 -10 12 C-11.06351675 8.61608307 -11.21442982 7.4195366 -9.5625 4.1875 C-9.046875 3.465625 -8.53125 2.74375 -8 2 C-5.83125748 2.50603992 -4.00032373 2.99983813 -2 4 C-2 3.34 -2 2.68 -2 2 C-1.34 2 -0.68 2 0 2 C0 1.34 0 0.68 0 0 Z " fill="#16BBB1" transform="translate(686,129)"/>
<path d="M0 0 C2.64 0 5.28 0 8 0 C8.33 0.99 8.66 1.98 9 3 C7.02 3 5.04 3 3 3 C3.33 4.98 3.66 6.96 4 9 C5.65 9.33 7.3 9.66 9 10 C8.67 10.66 8.34 11.32 8 12 C5.9375 12.625 5.9375 12.625 4 13 C3.67 14.65 3.34 16.3 3 18 C2.01 18 1.02 18 0 18 C0 12.06 0 6.12 0 0 Z " fill="#6B6A6A" transform="translate(497,213)"/>
<path d="M0 0 C2.375 0.6875 2.375 0.6875 3.375 1.6875 C3.5625 4.625 3.5625 4.625 3.375 7.6875 C1.375 9.6875 1.375 9.6875 -1.125 9.9375 C-3.625 9.6875 -3.625 9.6875 -5.625 7.6875 C-5.9375 4.6875 -5.9375 4.6875 -5.625 1.6875 C-2.625 -0.3125 -2.625 -0.3125 0 0 Z " fill="#EEF6F9" transform="translate(79.625,148.3125)"/>
<path d="M0 0 C0.99 0 1.98 0 3 0 C3.61875 1.2065625 3.61875 1.2065625 4.25 2.4375 C5.84985553 5.4084131 5.84985553 5.4084131 9.6875 5.8125 C11.3271875 5.9053125 11.3271875 5.9053125 13 6 C13 7.32 13 8.64 13 10 C8.09267226 10.48111056 5.02573936 10.71801755 0.875 7.8125 C-1 5 -1 5 -0.8125 2.1875 C-0.544375 1.465625 -0.27625 0.74375 0 0 Z " fill="#0674BE" transform="translate(70,152)"/>
<path d="M0 0 C1.1446875 0.2475 1.1446875 0.2475 2.3125 0.5 C7.22145849 1.16562149 12.05435114 1.07920078 17 1 C17.33 1.66 17.66 2.32 18 3 C20.32156597 3.40729228 22.6568787 3.74438677 25 4 C25 4.33 25 4.66 25 5 C16.42 5 7.84 5 -1 5 C-0.67 3.35 -0.34 1.7 0 0 Z " fill="#0377BE" transform="translate(119,136)"/>
<path d="M0 0 C0.66 0 1.32 0 2 0 C2.06058594 0.75925781 2.12117187 1.51851562 2.18359375 2.30078125 C2.26738281 3.29464844 2.35117187 4.28851563 2.4375 5.3125 C2.55931641 6.79169922 2.55931641 6.79169922 2.68359375 8.30078125 C2.91812559 11.09375599 2.91812559 11.09375599 4 14 C6.97 14.33 9.94 14.66 13 15 C13 15.99 13 16.98 13 18 C8.71 18 4.42 18 0 18 C0 12.06 0 6.12 0 0 Z " fill="#717071" transform="translate(862,213)"/>
<path d="M0 0 C-0.99 0.495 -0.99 0.495 -2 1 C-2.33 1.99 -2.66 2.98 -3 4 C-3.78375 4.12375 -4.5675 4.2475 -5.375 4.375 C-8.14057822 4.79117993 -8.14057822 4.79117993 -10 7 C-10.16687448 9.58354218 -10.16687448 9.58354218 -10 12 C-11.65 12.33 -13.3 12.66 -15 13 C-14.65256798 4.87009063 -14.65256798 4.87009063 -12.125 1.5 C-7.89415379 -1.48647968 -4.91827902 -0.83517946 0 0 Z " fill="#838383" transform="translate(626,213)"/>
<path d="M0 0 C7.26 0 14.52 0 22 0 C21 3 21 3 19 4 C12.61371486 4.41046067 6.32875879 3.81661404 0 3 C0 2.01 0 1.02 0 0 Z " fill="#0167B7" transform="translate(56,173)"/>
<path d="M0 0 C0.66 0 1.32 0 2 0 C2 0.66 2 1.32 2 2 C2.99 2 3.98 2 5 2 C6.20320898 3.5284006 7.40530365 5.05774863 8.59375 6.59765625 C10.77434951 8.77219854 13.02249518 8.8615114 16 9 C14.21822867 11.3756951 13.19924012 11.95924634 10.25 12.5625 C5.68587772 11.77255576 2.83509122 9.64863913 0 6 C-0.4375 2.625 -0.4375 2.625 0 0 Z " fill="#A5A7A9" transform="translate(282,79)"/>
<path d="M0 0 C1.36741555 2.25221384 2.04066478 3.52557758 1.8125 6.1875 C1.544375 6.785625 1.27625 7.38375 1 8 C0.01 8.33 -0.98 8.66 -2 9 C-2 8.34 -2 7.68 -2 7 C-3.670625 7.061875 -3.670625 7.061875 -5.375 7.125 C-9 7 -9 7 -11 5 C-4.85714286 -0.71428571 -4.85714286 -0.71428571 0 0 Z " fill="#056BB6" transform="translate(274,74)"/>
<path d="M0 0 C1.65 0.33 3.3 0.66 5 1 C5.66 2.98 6.32 4.96 7 7 C6.01 6.67 5.02 6.34 4 6 C4.33 7.65 4.66 9.3 5 11 C3.35 11 1.7 11 0 11 C0 10.01 0 9.02 0 8 C-0.99 8 -1.98 8 -3 8 C-2.45276317 4.62537285 -1.9451 2.91765 0 0 Z " fill="#7F7E7E" transform="translate(524,213)"/>
<path d="M0 0 C1.65 0 3.3 0 5 0 C7.21538462 5.29230769 7.21538462 5.29230769 6.125 8.875 C5.75375 9.57625 5.3825 10.2775 5 11 C3.35 11 1.7 11 0 11 C0.33 9.35 0.66 7.7 1 6 C0.01 6 -0.98 6 -2 6 C-1.34 4.02 -0.68 2.04 0 0 Z " fill="#808080" transform="translate(822,213)"/>
<path d="M0 0 C1.67542976 0.28604898 3.34385343 0.61781233 5 1 C5.66 2.98 6.32 4.96 7 7 C6.01 6.67 5.02 6.34 4 6 C4.33 7.65 4.66 9.3 5 11 C3.35 11 1.7 11 0 11 C-0.33 9.68 -0.66 8.36 -1 7 C-1.99 7.495 -1.99 7.495 -3 8 C-1.125 1.125 -1.125 1.125 0 0 Z " fill="#868586" transform="translate(375,213)"/>
<path d="M0 0 C1.32 2.97 2.64 5.94 4 9 C1.9271875 8.690625 1.9271875 8.690625 -0.1875 8.375 C-4.07420188 7.94246735 -6.49258237 8.09597329 -10 10 C-11.1446875 10.556875 -11.1446875 10.556875 -12.3125 11.125 C-12.869375 11.41375 -13.42625 11.7025 -14 12 C-4.57142857 0 -4.57142857 0 0 0 Z " fill="#15B5C6" transform="translate(258,131)"/>
<path d="M0 0 C0.33 0.66 0.66 1.32 1 2 C5.95 2 10.9 2 16 2 C15.67 2.66 15.34 3.32 15 4 C12.66666667 4.33333333 10.33333333 4.66666667 8 5 C7.67 5.66 7.34 6.32 7 7 C5.02 7 3.04 7 1 7 C0.67 7.99 0.34 8.98 0 10 C-2 8 -2 8 -2.25 5.5625 C-2 3 -2 3 0 0 Z " fill="#0275BC" transform="translate(86,149)"/>
<path d="M0 0 C0.99 0.66 1.98 1.32 3 2 C2.01 3.485 2.01 3.485 1 5 C1.33 5.33 1.66 5.66 2 6 C2.14115161 8.67058851 2.04247107 11.32432238 2 14 C1.34 14 0.68 14 0 14 C-1.25227484 12.52295788 -2.50166522 11.04172601 -3.68359375 9.5078125 C-5.11764091 7.73237056 -5.11764091 7.73237056 -8 6 C-7.34 6 -6.68 6 -6 6 C-5.67 5.01 -5.34 4.02 -5 3 C-3 1.875 -3 1.875 -1 1 C-0.67 0.67 -0.34 0.34 0 0 Z " fill="#E1E4E5" transform="translate(338,24)"/>
<path d="M0 0 C0.33 0 0.66 0 1 0 C1.33 4.62 1.66 9.24 2 14 C5.63 14 9.26 14 13 14 C13 14.99 13 15.98 13 17 C8.38 17 3.76 17 -1 17 C-0.67 11.39 -0.34 5.78 0 0 Z " fill="#696767" transform="translate(437,214)"/>
<path d="M0 0 C0.33 0 0.66 0 1 0 C1.33 4.62 1.66 9.24 2 14 C5.63 14 9.26 14 13 14 C13 14.99 13 15.98 13 17 C8.71 17 4.42 17 0 17 C0 11.39 0 5.78 0 0 Z " fill="#6D6C6C" transform="translate(716,214)"/>
<path d="M0 0 C0.33 0 0.66 0 1 0 C1 2.64 1 5.28 1 8 C4.96 8 8.92 8 13 8 C12.67 8.66 12.34 9.32 12 10 C9.03 10 6.06 10 3 10 C3 12.64 3 15.28 3 18 C2.01 18 1.02 18 0 18 C0 12.06 0 6.12 0 0 Z " fill="#686767" transform="translate(759,213)"/>
<path d="M0 0 C4.95 0 9.9 0 15 0 C15 7.875 15 7.875 14 11.9375 C13.814375 12.70964844 13.62875 13.48179688 13.4375 14.27734375 C13.293125 14.84582031 13.14875 15.41429687 13 16 C12.34 16 11.68 16 11 16 C10.78807779 10.80790596 11.4087311 6.873261 13 2 C8.71 1.67 4.42 1.34 0 1 C0 0.67 0 0.34 0 0 Z " fill="#8B9CA8" transform="translate(341,16)"/>
<path d="M0 0 C1.7492214 -0.08142927 3.49954542 -0.13938541 5.25 -0.1875 C6.22453125 -0.22230469 7.1990625 -0.25710937 8.203125 -0.29296875 C11.43179714 0.04523015 12.75781375 0.67320295 15 3 C15.25 6.6875 15.25 6.6875 15 10 C13.0625 9.25 13.0625 9.25 11 8 C10.25 5.875 10.25 5.875 10 4 C8.906875 3.896875 7.81375 3.79375 6.6875 3.6875 C2.94024845 2.98885988 2.34037259 2.68602762 0 0 Z " fill="#828282" transform="translate(662,213)"/>
<path d="M0 0 C1.33333333 1.66666667 2.66666667 3.33333333 4 5 C4.7425 5.886875 5.485 6.77375 6.25 7.6875 C8 10 8 10 8 12 C3.25 11.25 3.25 11.25 1 9 C-0.31747324 8.30251417 -1.64914193 7.63040043 -3 7 C-2.01 4.69 -1.02 2.38 0 0 Z " fill="#9FAEB7" transform="translate(273,66)"/>
<path d="M0 0 C0.33 1.98 0.66 3.96 1 6 C-1.31 6.33 -3.62 6.66 -6 7 C-6 6.34 -6 5.68 -6 5 C-7.32 4.67 -8.64 4.34 -10 4 C-10 3.34 -10 2.68 -10 2 C-6.49223216 0.39644899 -3.85645121 -0.22036864 0 0 Z " fill="#1BBDAB" transform="translate(964,128)"/>
<path d="M0 0 C0.99 0 1.98 0 3 0 C3 5.94 3 11.88 3 18 C1.68 17.67 0.36 17.34 -1 17 C-0.89171875 15.91332031 -0.89171875 15.91332031 -0.78125 14.8046875 C-0.30592078 9.85334145 0.13461998 4.98093926 0 0 Z " fill="#717070" transform="translate(772,213)"/>
<path d="M0 0 C2.875 -0.125 2.875 -0.125 6 0 C6.66 0.66 7.32 1.32 8 2 C7.46428571 5.53571429 7.46428571 5.53571429 6 7 C4.00041636 7.04080783 1.99954746 7.04254356 0 7 C0 4.69 0 2.38 0 0 Z " fill="#ECECEC" transform="translate(907,216)"/>
<path d="M0 0 C5.61 0 11.22 0 17 0 C17 1.65 17 3.3 17 5 C16.67 3.68 16.34 2.36 16 1 C13.36 1.33 10.72 1.66 8 2 C9.32 2.66 10.64 3.32 12 4 C6.06 4 0.12 4 -6 4 C-2 2 -2 2 0 2 C0 1.34 0 0.68 0 0 Z " fill="#B9BEC2" transform="translate(340,15)"/>
<path d="M0 0 C1.093125 0.185625 2.18625 0.37125 3.3125 0.5625 C6.93624133 1.2578068 6.93624133 1.2578068 10 0 C10.66 0.33 11.32 0.66 12 1 C11 4 11 4 9.4375 5.25 C5.76051305 6.3813806 2.7779331 5.62965552 -1 5 C-0.67 3.35 -0.34 1.7 0 0 Z " fill="#7B7A7B" transform="translate(396,226)"/>
<path d="M0 0 C0.33 0.66 0.66 1.32 1 2 C4.3 2 7.6 2 11 2 C11 3.32 11 4.64 11 6 C8.03 6 5.06 6 2 6 C1.67 6.99 1.34 7.98 1 9 C0.67 6.03 0.34 3.06 0 0 Z " fill="#717070" transform="translate(884,218)"/>
<path d="M0 0 C1.32 0 2.64 0 4 0 C2.95218768 2.74043223 1.84078766 5.2929507 0.4375 7.875 C-1.13483856 11.29312731 -1.62734133 14.27341329 -2 18 C-2.33 18 -2.66 18 -3 18 C-3.66 14.37 -4.32 10.74 -5 7 C-4.34 7 -3.68 7 -3 7 C-2.690625 6.21625 -2.38125 5.4325 -2.0625 4.625 C-1 2 -1 2 0 0 Z " fill="#818081" transform="translate(603,213)"/>
<path d="M0 0 C0.7734375 -0.01675781 1.546875 -0.03351563 2.34375 -0.05078125 C4.97015897 0.39171157 5.83557103 1.29064557 7.5 3.3125 C4.82333988 5.06262392 3.68073883 5.33463128 0.4375 4.9375 C-0.531875 4.73125 -1.50125 4.525 -2.5 4.3125 C-3.49 4.3125 -4.48 4.3125 -5.5 4.3125 C-6.16 3.6525 -6.82 2.9925 -7.5 2.3125 C-4.40219052 0.24729368 -3.5459519 0.01772976 0 0 Z " fill="#7D7C7C" transform="translate(400.5,212.6875)"/>
<path d="M0 0 C0.33 0.99 0.66 1.98 1 3 C1.66 3 2.32 3 3 3 C3 3.66 3 4.32 3 5 C3.66 5.33 4.32 5.66 5 6 C3.02 7.98 1.04 9.96 -1 12 C-1.99 11.67 -2.98 11.34 -4 11 C-4.33 10.01 -4.66 9.02 -5 8 C-4.01 7.34 -3.02 6.68 -2 6 C-0.78715124 2.94570927 -0.78715124 2.94570927 0 0 Z " fill="#E5E6E6" transform="translate(284,65)"/>
<path d="M0 0 C2.31 0 4.62 0 7 0 C7.38218767 1.65614657 7.71395102 3.32457024 8 5 C7 6 7 6 3.4375 6.0625 C2.303125 6.041875 1.16875 6.02125 0 6 C0 4.02 0 2.04 0 0 Z " fill="#EEEEEE" transform="translate(500,216)"/>
<path d="M0 0 C2.875 -0.125 2.875 -0.125 6 0 C6.66 0.66 7.32 1.32 8 2 C7.625 4.125 7.625 4.125 7 6 C4.69 6 2.38 6 0 6 C0 4.02 0 2.04 0 0 Z " fill="#F5F5F5" transform="translate(844,216)"/>
<path d="M0 0 C0.33 2.31 0.66 4.62 1 7 C-1.31 7 -3.62 7 -6 7 C-6.66 5.35 -7.32 3.7 -8 2 C-4.77208445 -0.1519437 -3.71599191 -0.20086443 0 0 Z " fill="#2AB2DB" transform="translate(315,82)"/>
<path d="M0 0 C0.99 0.33 1.98 0.66 3 1 C3 5.62 3 10.24 3 15 C2.01 15 1.02 15 0 15 C0 10.05 0 5.1 0 0 Z " fill="#6F6E6E" transform="translate(544,216)"/>
<path d="M0 0 C0.99 0 1.98 0 3 0 C3.66 0.66 4.32 1.32 5 2 C5.66 2 6.32 2 7 2 C6.91621094 2.59167969 6.83242187 3.18335938 6.74609375 3.79296875 C6.19110576 8.09939457 5.76773348 11.75552644 7 16 C3.8601549 14.43007745 3.57856654 11.77552998 2.375 8.5625 C1.92898437 7.38816406 1.48296875 6.21382812 1.0234375 5.00390625 C0 2 0 2 0 0 Z " fill="#0697B9" transform="translate(236,188)"/>
<path d="M0 0 C0.66 0 1.32 0 2 0 C3.13664596 5.24605829 3.13664596 5.24605829 3 8 C0.6875 10.5 0.6875 10.5 -2 12 C-2.66 12 -3.32 12 -4 12 C-3.52494322 10.18641846 -3.04483958 8.37415821 -2.5625 6.5625 C-2.29566406 5.55316406 -2.02882813 4.54382813 -1.75390625 3.50390625 C-1 1 -1 1 0 0 Z " fill="#0F90CE" transform="translate(295,103)"/>
<path d="M0 0 C0.33 1.32 0.66 2.64 1 4 C1.804375 4.185625 1.804375 4.185625 2.625 4.375 C5.4638286 5.12206016 8.22223202 6.05303364 11 7 C10.67 7.99 10.34 8.98 10 10 C6.46322336 10.32152515 4.6037896 10.4131192 1.625 8.375 C-0.4131192 5.3962104 -0.32152515 3.53677664 0 0 Z " fill="#737272" transform="translate(612,221)"/>
<path d="M0 0 C1.98 0 3.96 0 6 0 C6.38218767 1.65614657 6.71395102 3.32457024 7 5 C6 6 6 6 2.9375 6.0625 C1.4834375 6.0315625 1.4834375 6.0315625 0 6 C0 4.02 0 2.04 0 0 Z " fill="#F7F7F7" transform="translate(666,216)"/>
<path d="M0 0 C0.33 0 0.66 0 1 0 C1 4.95 1 9.9 1 15 C3.64 15 6.28 15 9 15 C9 15.99 9 16.98 9 18 C5.7 17.67 2.4 17.34 -1 17 C-0.67 11.39 -0.34 5.78 0 0 Z " fill="#878687" transform="translate(460,213)"/>
<path d="M0 0 C0.66 0 1.32 0 2 0 C2 4.62 2 9.24 2 14 C1.01 14 0.02 14 -1 14 C-1.027193 12.41676312 -1.04648306 10.83338938 -1.0625 9.25 C-1.07410156 8.36828125 -1.08570313 7.4865625 -1.09765625 6.578125 C-1.00826198 4.2181162 -0.66912821 2.25501476 0 0 Z " fill="#696868" transform="translate(701,217)"/>
<path d="M0 0 C2.64465038 3.1254959 3.84414715 6.08788267 5 10 C3.35 10 1.7 10 0 10 C-0.33 9.01 -0.66 8.02 -1 7 C-1.66 6.34 -2.32 5.68 -3 5 C-2.01 3.35 -1.02 1.7 0 0 Z " fill="#7B7B7B" transform="translate(382,221)"/>
<path d="M0 0 C4.29 0 8.58 0 13 0 C13 0.99 13 1.98 13 3 C9.37 3.33 5.74 3.66 2 4 C1.34 2.68 0.68 1.36 0 0 Z " fill="#727171" transform="translate(883,213)"/>
<path d="M0 0 C3.96 0 7.92 0 12 0 C12 0.99 12 1.98 12 3 C8.7 3 5.4 3 2 3 C1.67 4.32 1.34 5.64 1 7 C1.020625 6.21625 1.04125 5.4325 1.0625 4.625 C1.18684063 2.01885039 1.18684063 2.01885039 0 0 Z " fill="#7E7E7E" transform="translate(864,213)"/>
<path d="M0 0 C0 0.99 0 1.98 0 3 C-2 4 -2 4 -5 4 C-7.125 3.1875 -7.125 3.1875 -9 2 C-9.33 1.01 -9.66 0.02 -10 -1 C-5.94568308 -2.15837626 -3.78187881 -1.83691257 0 0 Z " fill="#1679BF" transform="translate(33,165)"/>
<path d="M0 0 C0 1.32 0 2.64 0 4 C-2.64 4 -5.28 4 -8 4 C-8 3.34 -8 2.68 -8 2 C-9.65 2 -11.3 2 -13 2 C-13 1.67 -13 1.34 -13 1 C-8.60563789 0.14256349 -4.47427924 -0.08948558 0 0 Z " fill="#037CC3" transform="translate(160,151)"/>
<path d="M0 0 C2 1 2 1 4 4 C4 6.0625 4 6.0625 3 8 C-0.0625 9.25 -0.0625 9.25 -3 10 C-1.125 2.25 -1.125 2.25 0 0 Z " fill="#1380C4" transform="translate(256,101)"/>
<path d="M0 0 C0.99 0.33 1.98 0.66 3 1 C3 1.66 3 2.32 3 3 C-2.41176471 7 -2.41176471 7 -5 7 C-5.33 7.99 -5.66 8.98 -6 10 C-6 9.34 -6 8.68 -6 8 C-6.99 7.67 -7.98 7.34 -9 7 C-7.57277341 5.8001722 -6.13284224 4.6154424 -4.6875 3.4375 C-3.88699219 2.77621094 -3.08648437 2.11492187 -2.26171875 1.43359375 C-1.51535156 0.96050781 -0.76898438 0.48742187 0 0 Z " fill="#A3ABB1" transform="translate(321,74)"/>
<path d="M0 0 C0 0.66 0 1.32 0 2 C-0.66 2 -1.32 2 -2 2 C-1.67 2.99 -1.34 3.98 -1 5 C-5.43076923 8.07692308 -5.43076923 8.07692308 -8.3125 7.6875 C-8.869375 7.460625 -9.42625 7.23375 -10 7 C-3.18421053 0 -3.18421053 0 0 0 Z " fill="#B5B6B8" transform="translate(307,29)"/>
<path d="M0 0 C1.32 0.66 2.64 1.32 4 2 C2.9802352 4.78117672 2.33608762 5.81833102 -0.3125 7.25 C-3.01833686 8.00511726 -5.20707882 8.1595955 -8 8 C-7.38125 7.9175 -6.7625 7.835 -6.125 7.75 C-3.84957521 7.20076457 -3.84957521 7.20076457 -2.875 5.125 C-2.58625 4.42375 -2.2975 3.7225 -2 3 C-1.34 2.01 -0.68 1.02 0 0 Z " fill="#838383" transform="translate(626,224)"/>
<path d="M0 0 C0.99 0 1.98 0 3 0 C3 4.29 3 8.58 3 13 C2.01 13 1.02 13 0 13 C0 8.71 0 4.42 0 0 Z " fill="#6A6868" transform="translate(650,213)"/>
<path d="M0 0 C3 3.32142857 3 3.32142857 3 6 C0.625 5.6875 0.625 5.6875 -2 5 C-2.66 4.01 -3.32 3.02 -4 2 C-6.05003955 0.80767387 -6.05003955 0.80767387 -8 0 C-4.97121688 -0.97353743 -2.97153543 -1.24612776 0 0 Z " fill="#727171" transform="translate(915,225)"/>
<path d="M0 0 C1.5 1 1.5 1 3 3 C3.27345479 5.71846235 3.13491285 8.25677199 3 11 C2.01 11 1.02 11 0 11 C-0.19491452 9.54263913 -0.38069358 8.08405407 -0.5625 6.625 C-0.66691406 5.81289062 -0.77132812 5.00078125 -0.87890625 4.1640625 C-1 2 -1 2 0 0 Z " fill="#6C6A6A" transform="translate(597,220)"/>
<path d="M0 0 C2.97 0.33 5.94 0.66 9 1 C9 1.33 9 1.66 9 2 C8.21625 2.0825 7.4325 2.165 6.625 2.25 C3.85250896 2.72806339 3.85250896 2.72806339 2.6875 5.0625 C2.3471875 6.0215625 2.3471875 6.0215625 2 7 C1.01 7 0.02 7 -1 7 C-0.67 4.69 -0.34 2.38 0 0 Z " fill="#20C0B2" transform="translate(939,196)"/>
<path d="M0 0 C0.99 1.32 1.98 2.64 3 4 C2.67 4.66 2.34 5.32 2 6 C-0.97 5.67 -3.94 5.34 -7 5 C-6.67 4.34 -6.34 3.68 -6 3 C-5.34 3.33 -4.68 3.66 -4 4 C-3.67 3.34 -3.34 2.68 -3 2 C-2.01 1.34 -1.02 0.68 0 0 Z " fill="#F1F3F3" transform="translate(330,24)"/>
<path d="M0 0 C0.33 0 0.66 0 1 0 C2.33554084 6.43487859 2.33554084 6.43487859 0.8125 9 C-1 10 -1 10 -3.125 9.8125 C-5 9 -5 9 -6 7 C-5.01 6.67 -4.02 6.34 -3 6 C-0.8614515 3.8614515 -0.57344937 2.86724686 0 0 Z " fill="#7D7C7D" transform="translate(651,221)"/>
<path d="M0 0 C2.64 0 5.28 0 8 0 C8 0.33 8 0.66 8 1 C6.35 1 4.7 1 3 1 C3 3.31 3 5.62 3 8 C2.01 8 1.02 8 0 8 C0 5.36 0 2.72 0 0 Z " fill="#6B6969" transform="translate(662,214)"/>
<path d="M0 0 C2.64465038 3.1254959 3.84414715 6.08788267 5 10 C3.68 10 2.36 10 1 10 C-0.60725635 6.78548731 -0.05748185 3.56387464 0 0 Z " fill="#7C7B7C" transform="translate(531,221)"/>
<path d="M0 0 C0.66 0.99 1.32 1.98 2 3 C0.71919608 5.56160784 -0.4565581 5.76461393 -3 7 C-4.35113205 7.97581759 -5.68946944 8.97029741 -7 10 C-7 7 -7 7 -5.46875 5.17578125 C-4.8190625 4.56089844 -4.169375 3.94601563 -3.5 3.3125 C-2.8503125 2.68988281 -2.200625 2.06726563 -1.53125 1.42578125 C-0.77328125 0.72001953 -0.77328125 0.72001953 0 0 Z " fill="#0D63AF" transform="translate(225,162)"/>
<path d="M0 0 C0.5775 0.37125 1.155 0.7425 1.75 1.125 C0.125 3.125 0.125 3.125 -2.25 5.125 C-5.5 5.375 -5.5 5.375 -8.25 5.125 C-6.93 4.465 -5.61 3.805 -4.25 3.125 C-4.91 2.465 -5.57 1.805 -6.25 1.125 C-2.80384615 -1.09038462 -2.80384615 -1.09038462 0 0 Z " fill="#89898A" transform="translate(809.25,226.875)"/>
<path d="M0 0 C5.625 -0.25 5.625 -0.25 9 2 C8.67 2.99 8.34 3.98 8 5 C4.75791433 4.64950425 3.38472296 4.43778819 1.1875 1.9375 C0.795625 1.298125 0.40375 0.65875 0 0 Z " fill="#807F80" transform="translate(743,213)"/>
<path d="M0 0 C0.99 0.99 1.98 1.98 3 3 C-0.4352048 5.29013653 -1.985331 5.17842973 -6 5 C-5.67 4.01 -5.34 3.02 -5 2 C-2.4375 0.8125 -2.4375 0.8125 0 0 Z " fill="#6B6A6A" transform="translate(749,226)"/>
<path d="M0 0 C1.98567708 0.09765625 3.97135417 0.1953125 5.95703125 0.29296875 C5.95703125 1.28296875 5.95703125 2.27296875 5.95703125 3.29296875 C2.32703125 3.29296875 -1.30296875 3.29296875 -5.04296875 3.29296875 C-2.04296875 0.29296875 -2.04296875 0.29296875 0 0 Z " fill="#6A6969" transform="translate(567.04296875,227.70703125)"/>
<path d="M0 0 C1.79133978 -0.05391993 3.58313899 -0.09275571 5.375 -0.125 C6.37273438 -0.14820313 7.37046875 -0.17140625 8.3984375 -0.1953125 C11 0 11 0 13 2 C10 4 10 4 6.5 3.8125 C2.97077775 2.99321626 2.26355921 2.5603063 0 0 Z " fill="#787878" transform="translate(662,213)"/>
<path d="M0 0 C2.25245881 2.68841859 3.88213958 4.64641875 5 8 C3.35 8 1.7 8 0 8 C-0.79953138 4.71303767 -1.09658936 3.28976808 0 0 Z " fill="#696868" transform="translate(507,223)"/>
<path d="M0 0 C1.20220203 3.53094302 0.79532349 6.12898982 0.0625 9.75 C-0.13214844 10.73484375 -0.32679688 11.7196875 -0.52734375 12.734375 C-0.68332031 13.48203125 -0.83929687 14.2296875 -1 15 C-3 12 -3 12 -2.79296875 9.84375 C-2.59316406 9.0703125 -2.39335938 8.296875 -2.1875 7.5 C-1.99542969 6.7265625 -1.80335938 5.953125 -1.60546875 5.15625 C-1.11881701 3.42314185 -0.56925335 1.70776005 0 0 Z " fill="#28BFB3" transform="translate(918,141)"/>
<path d="M0 0 C2 0 2 0 4.5 2.3125 C7 5 7 5 9 8 C8.34 8 7.68 8 7 8 C6.67 8.66 6.34 9.32 6 10 C5.566875 9.21625 5.13375 8.4325 4.6875 7.625 C3.10779753 4.78301625 3.10779753 4.78301625 0 3 C0 2.01 0 1.02 0 0 Z " fill="#E7ECEF" transform="translate(280,83)"/>
<path d="M0 0 C0.33 0 0.66 0 1 0 C1.08159574 4.16138263 0.98248524 7.9472484 0 12 C-0.66 12 -1.32 12 -2 12 C-2.17835515 7.45194365 -1.99785435 4.1205746 0 0 Z " fill="#96999B" transform="translate(354,20)"/>
<path d="M0 0 C2.0625 0.4375 2.0625 0.4375 4 1 C4.33 2.65 4.66 4.3 5 6 C3.68 6 2.36 6 1 6 C0.34 4.35 -0.32 2.7 -1 1 C-0.67 0.67 -0.34 0.34 0 0 Z " fill="#686667" transform="translate(829,225)"/>
<path d="M0 0 C0.33 0 0.66 0 1 0 C1 1.65 1 3.3 1 5 C-2.61973402 6.31626692 -5.09567131 7 -9 7 C-9 6.34 -9 5.68 -9 5 C-8.43410156 4.89042969 -7.86820313 4.78085938 -7.28515625 4.66796875 C-6.18494141 4.43013672 -6.18494141 4.43013672 -5.0625 4.1875 C-4.33160156 4.03667969 -3.60070312 3.88585937 -2.84765625 3.73046875 C-2.23792969 3.48941406 -1.62820313 3.24835938 -1 3 C-0.67 2.01 -0.34 1.02 0 0 Z " fill="#686767" transform="translate(854,218)"/>
<path d="M0 0 C1.65 0 3.3 0 5 0 C5.33 1.98 5.66 3.96 6 6 C5.34 6 4.68 6 4 6 C3.67 5.34 3.34 4.68 3 4 C0.98330173 2.86649466 0.98330173 2.86649466 -1 2 C-0.67 1.34 -0.34 0.68 0 0 Z " fill="#28C2B3" transform="translate(959,128)"/>
<path d="M0 0 C5.61 0 11.22 0 17 0 C16.34 1.32 15.68 2.64 15 4 C14.34 3.34 13.68 2.68 13 2 C9.87803664 1.53513282 9.87803664 1.53513282 6.375 1.375 C5.18648437 1.30023438 3.99796875 1.22546875 2.7734375 1.1484375 C1.85820313 1.09945312 0.94296875 1.05046875 0 1 C0 0.67 0 0.34 0 0 Z " fill="#0EBCA7" transform="translate(921,128)"/>
<path d="M0 0 C2.54379491 1.84205838 4.83312509 3.72478134 7 6 C4.36 5.67 1.72 5.34 -1 5 C-0.67 3.35 -0.34 1.7 0 0 Z " fill="#8F8E8F" transform="translate(396,226)"/>
<path d="M0 0 C1.32 0.33 2.64 0.66 4 1 C3.34 3.31 2.68 5.62 2 8 C0 6 0 6 -0.125 2.875 C-0.08375 1.92625 -0.0425 0.9775 0 0 Z " fill="#717070" transform="translate(392,216)"/>
<path d="M0 0 C-0.375 1.9375 -0.375 1.9375 -1 4 C-1.99 4.495 -1.99 4.495 -3 5 C-5.125 4.0625 -5.125 4.0625 -7 3 C-3.375 0 -3.375 0 0 0 Z " fill="#858485" transform="translate(802,213)"/>
<path d="M0 0 C2.5 1.3125 2.5 1.3125 5 3 C5 3.99 5 4.98 5 6 C3.35 5.67 1.7 5.34 0 5 C0 3.35 0 1.7 0 0 Z " fill="#29C0B5" transform="translate(686,129)"/>
<path d="M0 0 C1.98 0 3.96 0 6 0 C5.01 1.98 4.02 3.96 3 6 C2.34 5.67 1.68 5.34 1 5 C0.375 2.4375 0.375 2.4375 0 0 Z " fill="#22C3AE" transform="translate(1006,128)"/>
<path d="M0 0 C-1.485 1.98 -1.485 1.98 -3 4 C-5.64 3.67 -8.28 3.34 -11 3 C-7.11595442 0.41063628 -4.5725325 -0.12358196 0 0 Z " fill="#AEAFB1" transform="translate(340,16)"/>
<path d="M0 0 C0.66 0 1.32 0 2 0 C2.33 1.98 2.66 3.96 3 6 C1.35 6 -0.3 6 -2 6 C-1.34 4.02 -0.68 2.04 0 0 Z " fill="#E2E2E2" transform="translate(824,218)"/>
<path d="M0 0 C-0.99 1.32 -1.98 2.64 -3 4 C-3.99 3.67 -4.98 3.34 -6 3 C-6.33 2.01 -6.66 1.02 -7 0 C-4.3333581 -1.33332095 -2.83319697 -0.67102033 0 0 Z " fill="#DBDBDC" transform="translate(286,73)"/>
<path d="M0 0 C0.66 0.33 1.32 0.66 2 1 C0.6875 2.5 0.6875 2.5 -1 4 C-1.99 4 -2.98 4 -4 4 C-4.33 4.99 -4.66 5.98 -5 7 C-5.99 6.67 -6.98 6.34 -8 6 C-3.375 1.125 -3.375 1.125 0 0 Z " fill="#B6BBBD" transform="translate(292,42)"/>
<path d="M0 0 C0.33 0.66 0.66 1.32 1 2 C0.0625 4.625 0.0625 4.625 -1 7 C-1.33 6.34 -1.66 5.68 -2 5 C-4.02463255 4.34786708 -4.02463255 4.34786708 -6 4 C-4.68 3.67 -3.36 3.34 -2 3 C-3.32 2.34 -4.64 1.68 -6 1 C-4.02 0.67 -2.04 0.34 0 0 Z " fill="#8A8A8B" transform="translate(507,221)"/>
<path d="M0 0 C0.66 0.66 1.32 1.32 2 2 C1.34 2 0.68 2 0 2 C0.185625 2.7425 0.37125 3.485 0.5625 4.25 C0.9986917 6.99177639 0.75202442 8.39298201 0 11 C-0.38909985 9.54536519 -0.76088029 8.08608793 -1.125 6.625 C-1.33382812 5.81289062 -1.54265625 5.00078125 -1.7578125 4.1640625 C-1.83773437 3.44992188 -1.91765625 2.73578125 -2 2 C-1.34 1.34 -0.68 0.68 0 0 Z " fill="#0594BE" transform="translate(228,160)"/>
<path d="M0 0 C0.99 0 1.98 0 3 0 C3 2.31 3 4.62 3 7 C2.01 6.67 1.02 6.34 0 6 C0 4.02 0 2.04 0 0 Z " fill="#6B6969" transform="translate(627,219)"/>
<path d="M0 0 C0.66 0 1.32 0 2 0 C2.66 1.65 3.32 3.3 4 5 C2.35 5 0.7 5 -1 5 C-0.67 3.35 -0.34 1.7 0 0 Z " fill="#E6E6E6" transform="translate(525,219)"/>
<path d="M0 0 C0.66 0 1.32 0 2 0 C2 1.32 2 2.64 2 4 C2.66 4 3.32 4 4 4 C4 4.66 4 5.32 4 6 C2.35 6 0.7 6 -1 6 C-0.67 4.02 -0.34 2.04 0 0 Z " fill="#E2E2E3" transform="translate(376,218)"/>
<path d="M0 0 C-0.33 1.32 -0.66 2.64 -1 4 C-1.99 4 -2.98 4 -4 4 C-4.66 3.34 -5.32 2.68 -6 2 C-3 0 -3 0 0 0 Z " fill="#848484" transform="translate(399,213)"/>
<path d="M0 0 C2.475 0.495 2.475 0.495 5 1 C5 2.65 5 4.3 5 6 C4.67 5.01 4.34 4.02 4 3 C2.68 3.33 1.36 3.66 0 4 C0 2.68 0 1.36 0 0 Z " fill="#208FCA" transform="translate(69,149)"/>
<path d="M0 0 C0.99 0.33 1.98 0.66 3 1 C3.33 1.99 3.66 2.98 4 4 C2.35 4.66 0.7 5.32 -1 6 C-0.67 4.02 -0.34 2.04 0 0 Z " fill="#1883C4" transform="translate(270,100)"/>
<path d="M0 0 C1.9375 0.8125 1.9375 0.8125 4 2 C4.33 2.99 4.66 3.98 5 5 C3.35 4.67 1.7 4.34 0 4 C0 2.68 0 1.36 0 0 Z " fill="#6B6A6A" transform="translate(672,226)"/>
<path d="M0 0 C1.64826111 2.96687001 2.44271087 5.65626525 3 9 C2.01 9.495 2.01 9.495 1 10 C-0.625 8.375 -0.625 8.375 -2 6 C-1.1875 2.75 -1.1875 2.75 0 0 Z " fill="#208DCA" transform="translate(83,151)"/>
<path d="M0 0 C0.98120464 3.05263664 0.98120464 4.94736336 0 8 C-0.66 8 -1.32 8 -2 8 C-1.125 1.125 -1.125 1.125 0 0 Z " fill="#13BEA9" transform="translate(872,105)"/>
<path d="M0 0 C-1.125 1.5 -1.125 1.5 -3 3 C-6.1875 3.1875 -6.1875 3.1875 -9 3 C-6.38997624 -0.48003168 -4.1689578 -0.27793052 0 0 Z " fill="#9FB2C1" transform="translate(298,88)"/>
</svg>
